<?xml version="1.0" standalone="no"?>
<!DOCTYPE svg PUBLIC "-//W3C//DTD SVG 1.1//EN" "http://www.w3.org/Graphics/SVG/1.1/DTD/svg11.dtd" >
<svg>
<metadata>
Created by FontForge 20110222 at Mon Apr 14 02:25:16 2014
 By Orthosie Webhosting
Written by Abdulla Waheed;  Edited by Hassan Hameed;  Managed by Hassan Shujau.  Copyright, 1995.  Modification restricted without written permission.
</metadata>
<defs>
<font id="AammuFRasmyRegular" horiz-adv-x="0" >
  <font-face 
    font-family="AammuFRasmyRegular"
    font-weight="400"
    font-stretch="normal"
    units-per-em="2048"
    panose-1="2 11 6 3 5 3 2 2 2 4"
    ascent="1638"
    descent="-410"
    x-height="651"
    cap-height="11"
    bbox="-104 -742 1350 1439"
    underline-thickness="0"
    underline-position="0"
    unicode-range="U+0020-203A"
  />
<missing-glyph horiz-adv-x="1439" 
d="M89 0v1439h1261v-1439h-1261zM1261 89v1261h-1083v-1261h1083z" />
    <glyph glyph-name=".notdef" horiz-adv-x="1439" 
d="M89 0v1439h1261v-1439h-1261zM1261 89v1261h-1083v-1261h1083z" />
    <glyph glyph-name=".null" 
 />
    <glyph glyph-name="nonmarkingreturn" horiz-adv-x="371" 
 />
    <glyph glyph-name="space" unicode=" " horiz-adv-x="371" 
 />
    <glyph glyph-name="exclam" unicode="!" horiz-adv-x="463" 
d="M111 793v480q0 60 30 94q34 32 77 32q40 0 74 -31t34 -94v-481q0 -20 -1 -28.5t-7 -23.5q-4 -21 -21 -38q-27 -34 -75 -34q-46 0 -81 32q-30 33 -30 92zM218 370q-16 0 -25.5 1.5t-20.5 5.5q-21 8 -38.5 25.5t-29.5 39.5q-4 10 -6 20.5t-2 26.5q0 50 37 86q20 18 40 27
t45 9q49 0 83 -38q37 -34 37 -84q0 -47 -36 -83t-84 -36z" />
    <glyph glyph-name="quotedbl" unicode="&#x22;" horiz-adv-x="612" 
d="M78 1284q0 40 26 66q24 26 66 26q35 0 63 -25.5t28 -66.5v-239q0 -23 -6.5 -39t-20.5 -30t-27 -20q-16 -5 -37 -8q-37 0 -64 27q-28 25 -28 70v239zM344 1284q0 39 27 66q24 26 67 26q35 0 62.5 -25.5t27.5 -66.5v-239q0 -44 -27 -70q-5 -5 -11.5 -9.5t-15.5 -9t-36 -8.5
q-35 0 -65 29q-13 12 -21 28t-8 40v239z" />
    <glyph glyph-name="numbersign" unicode="#" horiz-adv-x="747" 
d="M226 674h-46q-28 0 -47 19q-15 18 -15 42q0 19 15 43q15 20 47 20h63l20 146h-50q-25 0 -44 19q-14 22 -14 43q0 58 58 58h69l24 193q7 64 71 64q25 0 41 -16q8 -5 11 -18l4 -28l-27 -195h111l28 193q7 64 66 64q13 0 22.5 -2t17.5 -11q16 -12 16 -36v-11l-26 -197h50
q58 0 58 -58q0 -62 -58 -62h-65l-19 -146h47q19 0 28 -5q9 -3 19 -15q5 -5 8 -17l5 -26q0 -25 -15 -42q-9 -14 -45 -19h-66l-27 -189q-6 -66 -69 -66q-57 0 -57 49l2 15l25 191h-113l-23 -189q-9 -66 -72 -66q-57 0 -57 52l1 12zM482 798l19 146h-112l-20 -146h113z" />
    <glyph glyph-name="dollar" unicode="$" horiz-adv-x="937" 
d="M674 1218l1 -12q0 -24 -15 -53q-9 -15 -32 -43l-17 -19l-19 -18q-15 -8 -35 -28l-40 -25l-31 -16l-20 -10l-27 -10l-20 -6l-20 -1q-20 0 -32 15q-8 5 -20 25l-8 14l-6 18v19l7 17l6 10l20 14l33 20l29 14l23 14q12 6 19 13l13 7l2 5l-20 1h-11h-5h-15l-27 9
q-20 13 -23 23l-6 18l-3 17v16l5 17l4 6l5 11l13 15l19 15q11 4 21 6t25 2q25 0 51 -5.5t29 -7.5l10 -3l11 -6q9 0 18 -6q33 -14 58 -37q11 -10 18 -24t12 -31zM726 939q0 -17 -5 -30l-17 -20l-28 -21l-22 -16l-18 -14l-11 -9l-10 -7l20 -18l12 -14l5 -15l2 -12l-1 -14
l-4 -13l-8 -13l-10 -13l-7 -8q-15 -11 -29 -16l-24 -6h-31l-19 1q-15 2 -22 5l-34 10l-30 -27l-42 -35l-34 -28l-37 -28l-22 -16l-16 -11l-15 -6l-16 -10l-8 -1l-13 -2l-16 2l-12 6q-18 10 -29 22q-7 7 -14 21l-8 23l-2 19v9l2 9q3 13 17 24l33 21l28 21l28 20l32 23l15 11
l16 12l23 18l-6 15l-8 30q0 18 2.5 28t19.5 30q10 14 39 26l26 2l20 -1q10 0 21 -7l27 -16l24 19l14 10l16 10l20 17l26 18l10 5l19 13l12 5l17 7l24 -3q10 -2 14 -6l11 -5q6 -4 10.5 -8.5t10.5 -11.5l8 -17zM771 326q0 -20 -14 -31q-14 -8 -31 -8h-523l-15 3l-16 7
q-14 9 -14 29q0 14 12 31q13 8 33 8h523q14 0 18 -2q4 0 15 -6l7 -13zM772 439q0 -18 -14 -27.5t-31 -11.5h-523l-15 3l-16 8q-14 8 -14 28q0 16 12 31q11 8 33 8h523l18 -1l6 -1.5t8 -5t8 -12.5z" />
    <glyph glyph-name="percent" unicode="%" horiz-adv-x="899" 
d="M30 1127q0 81 56 141t137 60q79 0 137 -61t58 -140q0 -39 -14.5 -74.5t-43.5 -65.5q-57 -60 -137 -60q-43 0 -77 14t-61 44q-55 58 -55 142zM178 561l399 700l15 23l23 27q7 6 17 10.5t23 6.5q33 0 53 -21q24 -19 24 -47q0 -10 -2 -15l-7 -20l-6 -16l-10 -18l-11 -13
l-6 -13l-401 -697q-39 -66 -78 -66q-30 0 -52 19l-18 22l-4 26q0 39 41 92zM169 1127q0 -19 14 -41q13 -13 40 -18l20 3q4 2 17.5 17.5t13.5 38.5q0 22 -13.5 40.5t-37.5 18.5q-21 0 -40 -17l-9 -18zM592 602q0 -22 15 -43q11 -14 36 -14t39 14.5t14 42.5q0 21 -15 40
q-9 16 -38 16q-21 0 -36 -16q-11 -14 -15 -40zM448 602q0 82 58 141t137 59t137 -60.5t58 -139.5q0 -77 -56.5 -138.5t-138.5 -61.5q-81 0 -138 59q-27 29 -42 62.5t-15 78.5z" />
    <glyph glyph-name="ampersand" unicode="&#x26;" horiz-adv-x="971" 
d="M169 84l-9 9l-10 23l-9 24l-4 22q-6 30 -6 65q0 31 7 72.5t30 105.5q11 28 20 46.5t19 34.5q37 61 76 108q24 28 50 54q30 30 64 59q23 19 48 39t53 40l77 55q40 31 74 60q29 25 51 46q55 55 55 86q0 14 -10 24q-21 19 -46 28t-55 9q-76 0 -180 -61q-46 -25 -113 -78
q-36 -27 -78 -46q-24 -8 -39 -8t-41 8q-10 4 -24 17q-4 6 -8 13t-6.5 15t-4.5 24q0 13 3 24l12 33q5 17 26 35l32 24q55 39 88 60q39 25 70 40q80 40 172 56l41 6l45 2q67 0 133 -21q53 -16 96 -45q28 -21 53 -61q13 -24 18.5 -42.5t5.5 -40.5q0 -17 -6 -35
q-16 -55 -43.5 -96.5t-71.5 -75.5l-175 -134l-88 -69q-33 -29 -51 -45l-26 -26q-20 -21 -32 -36l-35 -42l-48 -65l-29 -53l-41 -70q8 4 20 15q8 7 17 14l33 28l101 77l32 25l31 26l59 46l41 32l39 32l23 17l27 15q13 6 30 8q13 0 25.5 -3.5t24.5 -10.5l19 -16l17 -18l14 -19
l9 -15l8 -18l7 -21l4 -12l9 -42l7 -40l1 -32v-31l-3 -43l-7 -38l-11 -43l-15 -44q-7 -20 -18 -41q-3 -7 -8.5 -16t-10.5 -17l-18 -18q-6 -7 -24 -15.5t-37 -8.5l-24 1q-11 0 -21 5l-23 12l-21 17q-23 21 -23 53q0 8 7 22l9 24l15 39l9 29l7 30l2 24l1 18l-29 -24l-32 -31
l-39 -32q-28 -24 -45 -43l-43 -38q-11 -11 -37.5 -30t-58.5 -36q-14 -8 -28 -14q-3 -1 -31 -12l-28 -10q-19 -5 -33 -8.5t-30 -3.5l-27 -1l-12 1l-23 8z" />
    <glyph glyph-name="quotesingle" unicode="'" horiz-adv-x="331" 
d="M350 1047q0 -39 -32 -68q-27 -29 -68 -29q-29 0 -52.5 15.5t-39.5 42.5l-125 227q-14 29 -14 52q0 42 32 70q30 31 71 31q54 0 86 -54l125 -226q9 -14 12.5 -27t4 -19.5t0.5 -14.5z" />
    <glyph glyph-name="parenleft" unicode="(" horiz-adv-x="331" 
d="M45 590q0 157 23 281q6 31 12 58.5t16 64.5q14 50 36 103q30 66 50 91t61 25q43 0 68 -24q27 -23 27 -57v-17l-35 -107l-27 -102l-18 -77q-4 -19 -8.5 -50.5t-7.5 -58.5q0 -25 -2.5 -71t-2.5 -59q0 -97 12 -184q7 -47 15 -84.5t20 -78.5l19 -67l18 -52l17 -57v-12
q0 -7 -2 -15q0 -8 -7 -21q-10 -20 -34 -34l-26 -8l-26 -4q-36 0 -61 25q-22 27 -50 90q-87 216 -87 502z" />
    <glyph glyph-name="parenright" unicode=")" horiz-adv-x="331" 
d="M324 562q0 -148 -25 -282q-13 -68 -28 -120q-14 -58 -33 -103l-22 -47q-6 -12 -10.5 -18t-17.5 -18q-23 -29 -60 -29q-48 0 -74 26q-21 20 -21 55l1 13q0 9 2.5 16.5t3.5 12.5l14 38l35 116q14 52 28.5 145.5t14.5 194.5q0 142 -21 240q-7 33 -9 46q-7 33 -13 52
q-5 22 -10 39.5t-13 40.5l-23 74l-9 33q0 9 -4 13q0 34 29 59.5t69 25.5q36 0 60 -30q6 -6 11 -13.5t13 -21.5q3 -5 10.5 -20.5t15.5 -30.5l32 -99q3 -12 17 -71q10 -41 12 -53q25 -129 25 -284z" />
    <glyph glyph-name="asterisk" unicode="*" horiz-adv-x="538" 
d="M135 648l-63 24q-53 25 -60 74q0 26 22 47q15 15 49 19q31 0 64 -21l48 -33l-9 80l-1 7v6q0 23 20.5 40.5t54.5 17.5q37 0 56 -15.5t19 -41.5l-2 -14l-12 -80l50 35q21 14 53 19q26 0 52 -24q21 -21 21 -54q0 -38 -38 -56l-74 -30l79 -35q33 -17 33 -57q0 -18 -4 -29
q-1 -10 -15 -24q-6 -6 -10 -9t-14.5 -9.5t-28.5 -6.5q-16 2 -28 7l-28 18l-48 30l12 -71l2 -14q0 -24 -20 -43q-8 -10 -22 -16q-5 -2 -10 -3l-25 -5q-18 2 -31 6q-13 7 -26 18q-7 5 -12 17l-4 25l1 15l9 71l-51 -33q-30 -21 -61 -25q-28 0 -47 22q-16 25 -19 51
q0 25 10.5 40t31.5 25z" />
    <glyph glyph-name="plus" unicode="+" horiz-adv-x="829" 
d="M324 652v200q0 48 26 71q12 11 29 19t34 8q37 0 65 -26q28 -22 28 -72v-200h205q19 0 39 -9q20 -6 33 -21q25 -28 25 -66q0 -31 -26 -64q-28 -25 -71 -25h-205v-203q0 -28 -6 -43.5t-21 -27.5q-24 -26 -63 -26q-34 0 -63 25t-29 72v203h-203q-22 0 -35 4.5t-20.5 9
t-14.5 10.5q-12 14 -13 15q-5 9 -6 13l-11 38q3 26 7.5 35.5t8.5 16t12 15.5q25 22 72 28h203z" />
    <glyph glyph-name="comma" unicode="," horiz-adv-x="371" 
d="M350 550q0 -19 -15 -55l-131 -227q-29 -54 -85 -54q-38 0 -72 31q-31 25 -31 69l3 25q2 12 10 27l131 226q29 58 90 58q16 0 36 -9q16 -6 34 -21q12 -12 21 -32t9 -38z" />
    <glyph glyph-name="hyphen" unicode="-" horiz-adv-x="538" 
d="M429 643q51 0 76 -26q11 -11 19 -27.5t8 -38.5q0 -36 -26.5 -62t-76.5 -26h-306q-24 0 -47 5q-19 6 -32 21q-25 22 -32 62q5 41 32 64q8 10 27.5 17.5t51.5 10.5h306z" />
    <glyph glyph-name="period" unicode="." horiz-adv-x="371" 
d="M173 411q-24 0 -43 7.5t-39 26.5q-7 8 -14 18.5t-13 20.5q-3 8 -6 19.5t-3 26.5q0 48 35 85t83 37q31 0 63 -17q27 -16 42 -45q17 -24 17 -60q0 -50 -35 -85q-37 -34 -87 -34z" />
    <glyph glyph-name="slash" unicode="/" horiz-adv-x="562" 
d="M31 510l372 709q25 56 51 85q21 30 56 30q32 0 58 -22l16 -25q5 -13 5 -28q0 -29 -53 -132l-372 -709q-2 -4 -30 -49q-18 -30 -25 -39q-26 -26 -54 -26q-32 0 -55 18q-20 20 -20 56q0 39 51 132z" />
    <glyph glyph-name="zero" unicode="0" horiz-adv-x="715" 
d="M19 879q0 73 8 122q4 26 12 52.5t20 55.5q19 51 49 93q27 37 73 77q85 67 205 67q119 0 205.5 -64.5t125.5 -172.5q42 -102 42 -230q0 -119 -42 -226q-19 -49 -51 -92t-75 -78q-42 -30 -92 -47t-113 -17q-119 0 -201.5 63t-124 169t-41.5 228zM227 879q0 -104 38 -184.5
t121 -80.5q86 0 124.5 83.5t38.5 181.5q0 37 -3 65.5t-12 60.5q-4 29 -20 54q-10 18 -15 26t-18 24q-33 42 -95 42q-80 0 -119.5 -84.5t-39.5 -187.5z" />
    <glyph glyph-name="one" unicode="1" horiz-adv-x="459" 
d="M189 529v599h-62q-24 0 -39.5 6.5t-30.5 21.5q-23 29 -23 66q0 38 24 66t69 28h163q99 0 99 -102v-685q0 -54 -26 -81q-12 -12 -33 -21q-8 -2 -18.5 -4t-21.5 -2q-45 0 -75 27q-10 13 -19 34q-3 11 -5 22.5t-2 24.5z" />
    <glyph glyph-name="two" unicode="2" horiz-adv-x="715" 
d="M73 606q46 49 104 111q62 67 77 84q29 33 49 58q99 134 99 196q0 21 -5 31q-1 9 -14 22q-21 23 -59 23q-37 0 -58 -24l-17 -28l-19 -40q-7 -22 -14.5 -36t-19.5 -30q-16 -22 -57 -29q-19 0 -37 5t-33 18q-8 9 -12 14t-9.5 16.5t-7 18.5t-1.5 19q0 61 20.5 110.5
t68.5 92.5q88 85 211 85q113 0 197 -76t84 -191q0 -70 -29 -130.5t-52 -87.5l-97 -109l-62 -71q-9 -10 -18 -21q-13 -16 -23 -31h209q20 0 37.5 -6.5t30.5 -21.5q24 -26 24 -67q0 -18 -5.5 -34t-18.5 -33q-22 -25 -69 -25h-398q-123 0 -123 87q0 25 12 51q5 12 16 26t19 23z
" />
    <glyph glyph-name="three" unicode="3" horiz-adv-x="715" 
d="M292 1002q77 18 77 83q0 33 -27 51q-12 8 -26 11l-39 4q-29 -3 -63 -33l-58 -50l-29 -19q-11 -5 -30 -5q-34 0 -61 24l-16 28l-9 40q15 94 104 157q41 28 87 40t105 12q38 0 67 -7t60 -25q58 -33 95 -90q15 -25 25 -59q3 -14 6 -28.5t3 -37.5q0 -105 -98 -175
q74 -31 109 -90t35 -133q0 -81 -41 -144q-20 -28 -49 -57q-24 -23 -63 -43q-69 -37 -149 -37q-47 0 -68.5 3.5t-38.5 8t-40 12.5q-71 27 -123.5 83.5t-52.5 128.5q0 42 26 66q11 12 27.5 20.5t39.5 8.5q54 0 88 -50q37 -70 106 -85q14 0 26 -4q41 0 73 30q30 32 30 78
q0 36 -25 64q-10 13 -29 21q-17 9 -39 9q-37 0 -55 5q-8 1 -34 18q-24 19 -32 73q0 21 7.5 34t22.5 26l34 18z" />
    <glyph glyph-name="four" unicode="4" horiz-adv-x="715" 
d="M370 1253q39 67 128 67q65 0 115 -40q24 -21 35 -47t11 -60v-380h38q105 0 105 -89q0 -90 -99 -90h-44v-89q0 -49 -26 -79q-15 -12 -33 -21q-7 -2 -17.5 -4t-23.5 -2q-40 0 -67 28.5t-27 72.5v94h-329q-53 0 -76 22q-27 21 -27 58q0 24 5.5 42t19.5 36zM278 793h187v317z
" />
    <glyph glyph-name="five" unicode="5" horiz-adv-x="715" 
d="M95 1232q0 42 23 68t77 26h312q41 0 66 -28q26 -26 26 -66q0 -19 -6 -35.5t-17.5 -29.5t-28.5 -21t-43 -8h-237l-15 -109l48 9l42 3q62 0 108.5 -20.5t82.5 -65.5q74 -85 74 -208q0 -89 -44.5 -164.5t-120.5 -119.5t-164 -44h-28q-21 3 -31 4q-18 0 -33 3.5t-31.5 8
t-26.5 8.5t-29.5 13t-30.5 16q-4 3 -29 20q-43 37 -49 97q0 42 24 66q31 29 65 29q27 0 65 -22q29 -22 62.5 -34.5t67.5 -16.5q46 0 81 34q11 13 24 43q10 28 10 57q0 27 -4.5 44t-9 26.5t-12.5 22.5q-30 39 -79 39q-25 0 -76 -22.5t-74 -25.5q-14 0 -27.5 6t-27.5 17
q-21 17 -21 62v35q3 19 4 29l12 96l12 91q4 47 9 67z" />
    <glyph glyph-name="six" unicode="6" horiz-adv-x="706" 
d="M8 706q0 107 45.5 209.5t117.5 195.5l78 90l91 94q32 30 72 30q38 0 68 -28q31 -25 31 -65q0 -16 -6 -30q-3 -13 -18 -28l-32 -35l-20 -27l-39 -41l-29 -33l-15 -18l-29 -41l4 -4q28 10 74 10q75 0 134 -43q55 -40 87 -105q16 -35 23 -66q4 -13 6 -31t2 -37
q0 -24 -3 -46.5t-10 -44.5q-14 -42 -40 -78q-45 -65 -118 -100q-15 -7 -33 -13t-38 -11q-36 -9 -71 -9q-70 0 -127.5 17t-109.5 58q-23 20 -41 44t-30 54t-18 60.5t-6 71.5zM331 597q44 0 80 30q33 38 33 81q0 23 -7.5 43.5t-25.5 36.5q-30 34 -80 34q-47 0 -81 -34
q-15 -12 -26 -34q-7 -23 -7 -46t7 -43q6 -12 11 -19.5t15 -18.5q35 -30 81 -30z" />
    <glyph glyph-name="seven" unicode="7" horiz-adv-x="668" 
d="M117 1314h410q41 0 73 -30q28 -26 28 -72l-1 -27q0 -7 -7 -21l-309 -671q-39 -74 -102 -74q-39 0 -71 26q-25 22 -31 66l4 29l7 22l267 564h-267q-20 0 -36 8q-6 2 -13.5 6t-14.5 12l-18 23q-12 22 -12 45q0 39 23.5 66.5t69.5 27.5z" />
    <glyph glyph-name="eight" unicode="8" horiz-adv-x="715" 
d="M333 977q37 0 61 27q25 24 25 61t-27 60q-11 13 -23.5 18t-35.5 8q-33 0 -59 -26q-28 -22 -28 -60q0 -36 25 -62t62 -26zM536 904q51 -24 89 -88q31 -57 31 -118q0 -124 -87 -209t-236 -85q-47 0 -93 8q-43 9 -80 29q-71 36 -114 106q-9 17 -16 33.5t-12 36.5
q-9 38 -9 82q0 133 118 205q-41 37 -63 80q-10 21 -15 43.5t-5 50.5q0 108 76 180q41 36 93.5 54t119.5 18q134 0 211.5 -71t77.5 -181q0 -14 -1 -22t-6 -24q-4 -21 -18 -50q-23 -46 -61 -78zM333 599q48 0 83 31q32 35 32 82t-32 83q-34 34 -83 34q-47 0 -82 -34
q-33 -30 -33 -83q0 -47 33 -82q15 -12 38 -24q18 -7 44 -7z" />
    <glyph glyph-name="nine" unicode="9" horiz-adv-x="715" 
d="M665 1040q0 -79 -28.5 -161t-88.5 -169q-50 -76 -119 -155q-64 -74 -94 -103q-38 -33 -76 -33q-34 0 -65 27t-37 64q0 18 7 32q2 4 8.5 13.5t10.5 14.5l51 56q12 14 24 29q18 21 31 33l15 19l14 14l34 48l-4 2l-74 -11q-21 0 -39.5 2t-34.5 8q-34 9 -61 32q-26 18 -50 45
q-21 27 -40 63q-5 12 -13 40l-8 26q-3 17 -5 33t-2 35q0 71 25 127.5t75 95.5q24 19 49.5 34.5t51.5 25.5q52 20 111 20q140 0 236 -78.5t96 -228.5zM344 1152q-48 0 -81 -32q-16 -16 -24.5 -37t-8.5 -46q0 -44 34 -77t80 -33q24 0 42 7t37 25q32 35 32 78q0 51 -32 83
t-79 32z" />
    <glyph glyph-name="colon" unicode=":" horiz-adv-x="371" 
d="M192 407q-45 0 -83 34q-35 38 -35 83q0 50 33 86t85 36q34 0 63 -17q14 -6 23 -17q8 -7 19 -26q17 -28 17 -62q0 -48 -35 -82.5t-87 -34.5zM192 -31q-49 0 -83.5 39.5t-34.5 84.5t35 83q37 34 83 34q47 0 84.5 -33t37.5 -84q0 -48 -34.5 -86t-87.5 -38z" />
    <glyph glyph-name="semicolon" unicode=";" horiz-adv-x="371" 
d="M343 550v-12v-8q-2 -5 -2 -7l-11 -27l-129 -226q-29 -56 -85 -56q-19 0 -37 7t-36 23q-29 29 -29 70q0 19 1.5 25t3.5 12t7 15l128 226q31 57 92 57q38 0 67.5 -29.5t29.5 -69.5zM248 -95q0 -47 -33.5 -84.5t-85.5 -37.5q-32 0 -63 17q-7 4 -12 7t-12 11q-4 3 -9 11
t-9 14q-17 28 -17 62q0 46 35 83q36 34 87 34q45 0 83 -34q36 -38 36 -83z" />
    <glyph glyph-name="less" unicode="&#x3c;" horiz-adv-x="829" 
d="M135 452q-24 9 -40 18q-7 4 -14 9t-15 12q-15 14 -26 56q8 46 31 62q23 18 75 43l495 228q30 13 50 19.5t35 6.5q32 0 55.5 -22.5t23.5 -62.5q0 -58 -58 -83l-452 -191l452 -187q58 -24 58 -83q0 -71 -75 -89q-26 3 -37 7l-40 16z" />
    <glyph glyph-name="equal" unicode="=" horiz-adv-x="829" 
d="M721 831q46 0 71 -26q11 -9 17 -27q5 -11 8 -35q0 -38 -23.5 -65t-72.5 -27h-591q-95 0 -95 88q0 25 4.5 39.5t17.5 26.5q26 26 73 26h591zM726 505q45 0 68 -27q6 -7 10 -15t6 -13.5t3.5 -14t3.5 -22.5q0 -32 -25 -63q-23 -26 -71 -26h-591q-95 0 -95 89q0 43 22 65
q14 12 31.5 19.5t41.5 7.5h596z" />
    <glyph glyph-name="greater" unicode="&#x3e;" horiz-adv-x="829" 
d="M688 640q89 -39 89 -101q0 -39 -20.5 -55t-80.5 -46l-498 -229q-18 -9 -48 -18l-38 -10q-71 16 -82 89q10 61 64 83l451 187l-451 191q-31 13 -43 30l-10 21l-11 32q0 6 1.5 13.5t5.5 19.5t17 25q18 26 52 26q13 0 36 -5l46 -15z" />
    <glyph glyph-name="question" unicode="?" horiz-adv-x="664" 
d="M611 1192q-6 -53 -30.5 -81t-69.5 -28q-31 4 -55 22q-28 17 -52 44q-28 32 -49 43q-24 17 -57 17l-22 -3l-27 -9l-21 -15q-13 -9 -19 -18q-17 -23 -17 -43q0 -58 34.5 -78.5t108.5 -36t74 -81.5v-115q0 -51 -33 -78q-32 -31 -75 -31q-24 3 -42 10q-19 10 -34 23
q-33 27 -33 78v28q-136 27 -189 109q-25 35 -37.5 84t-12.5 106q0 11 0.5 24t7.5 37q4 15 9.5 30.5t13.5 30.5q32 56 77 96q23 18 50 32t60 25l64 15q32 6 63 6q45 0 81 -11q40 -9 85 -31q77 -38 104 -85l25 -46q8 -15 8 -28l6 -24zM419 524q0 -49 -36.5 -84t-81.5 -35
q-53 0 -87 34q-34 37 -34 85q0 35 16.5 62t41.5 43l31 12q5 1 13.5 2.5t18.5 2.5q22 0 43 -9q12 -6 20 -11t19 -15q8 -7 14.5 -17t12.5 -23q3 -8 6 -19.5t3 -27.5z" />
    <glyph glyph-name="at" unicode="@" horiz-adv-x="1108" 
d="M260 385q-73 50 -119 137q-22 41 -34 91q-9 47 -9 110q0 93 39 170.5t115 135.5q62 50 145 80q42 13 86 20t93 7q143 0 264.5 -70t195.5 -189.5t74 -259.5q0 -101 -34 -186.5t-103 -156.5q-76 -82 -173 -125t-216 -43q-41 0 -86 6q-21 2 -39.5 6.5t-46.5 12.5
q-27 10 -42 17q-27 14 -40 20q-30 16 -36 20q-16 10 -37 26l-27 27q-6 12 -6 28q0 15 16.5 31.5t39.5 16.5l22 -5l26 -19l16 -11l5 -4q25 -12 48.5 -21t53.5 -17q57 -13 116 -13q86 0 157 27t119 76q55 52 86.5 125t31.5 159l-4 23l-1 19l-2 18v16q-15 121 -119 222
q-49 49 -120 74t-158 25q-19 -2 -41.5 -4t-53.5 -12q-19 -5 -38.5 -12.5t-40.5 -18.5q-76 -39 -118 -114q-19 -32 -31 -80q-5 -21 -8 -45.5t-3 -51.5q0 -64 24 -127q13 -36 26 -51q17 -21 37 -21l17 3q11 2 22.5 7t28.5 18l20 15l18 14l8 6l18 11l9 9q6 2 8.5 4.5l3.5 3.5
l17 14l-5 8l-5 22l1 16q5 17 14.5 28.5t28.5 16.5l21 3l11 -1q5 0 15 -5l23 -11l16 14l17 15l17 12l19 14q8 7 22 13q7 6 20 9q11 1 23.5 -2.5t16.5 -12.5l13 -12l6 -24q3 -8 -2 -18t-12.5 -18t-32.5 -27q-3 -3 -8 -6t-6 -4l-13 -10l15 -13l10 -11q2 -2 2 -11q3 -7 0 -19
q0 -8 -8 -20l-12 -15l-20 -11l-19 -4l-22 -1q-14 0 -29 5l-25 5l-25 -19l-29 -27l-26 -20l-27 -21l-17 -11l-8 -7l-14 -9l-17 -9q-21 -10 -39.5 -15t-37.5 -5q-36 0 -72 24z" />
    <glyph glyph-name="A" unicode="A" horiz-adv-x="659" 
d="M88 88q-37 0 -57 10q-7 3 -11.5 6t-12.5 10l-20 21q-13 14 -20 29q-2 7 -4 15.5t-2 18.5q0 14 2 24.5t8 20.5l11 20q2 3 9 10t16 15l9 8l96 76l101 77q30 20 77 59l45 38l41 32l39 32l23 17l27 15q13 6 30 8q13 0 25.5 -3.5t24.5 -10.5l19 -16l17 -18l14 -19l9 -15l8 -18
l7 -21l4 -12l9 -42l7 -40l1 -32v-31v-21q-2 -15 -3 -22l-7 -38l-11 -43l-15 -44q-7 -20 -18 -41q-3 -7 -8.5 -16t-10.5 -17l-18 -18q-8 -9 -20 -14q-22 -10 -41 -10l-24 1q-11 0 -21 5l-23 12l-21 17q-23 21 -23 53q0 8 7 22l9 24l15 39l9 29l7 30l2 24l1 18
q-14 -12 -29.5 -25.5t-31.5 -29.5l-80 -73l-78 -72l-21 -18l-27 -21l-28 -20q-20 -12 -43 -15zM306 11q-24 0 -50 18q-12 9 -18 18l-7 27l3 27q3 12 13 22q11 18 44 27q25 0 50 -16q21 -19 26 -46q0 -17 -4 -28q-2 -10 -13 -22q-10 -18 -44 -27z" />
    <glyph glyph-name="B" unicode="B" horiz-adv-x="1260" 
d="M625 560h67l86 1l58 6l62 9l45 9q16 0 30 7l28 13l36 20l33 20q10 7 17.5 11.5t15.5 8.5q15 5 29 5h12t20 -3.5t28.5 -14.5t20.5 -21q3 -3 6 -9.5t7 -13.5l5 -21l2 -19q0 -25 -7 -40t-11 -21t-8 -10q-7 -8 -12 -11l-30 -25l-20 -13l-25 -14l-18 -10l-28 -12l-27 -9
l-43 -13l-79 -18q-38 -5 -74 -5l-136 -3l-94 -2l-78 4l-78 4l-77 6l-32 3l-35 3l-12 -11l-16 -14l-37 -29l-21 -17l-20 -17l-31 -20q-16 -9 -40 -14l-13 -1l-14 1l-12 3q-17 3 -44 23l-18 17q-6 6 -14 22q-11 23 -11 44l2 16q0 11 9 23t21 21l29 22l-16 14l-11 16
q-11 18 -14 30t-3 29q0 14 1 19.5t6 17t7 15t7 9.5l19 26l16 15q11 11 21 14l17 10l20 7q21 7 61 7l31 -1q13 -2 32 -9l19 -9l18 -10q38 -32 47 -73l60 -9l61 -3l75 -3zM658 188q-25 0 -50 17q-10 5 -18 18q-3 5 -5 14t-2 12q0 17 3 28q1 10 13 22q11 18 44 27q25 0 50 -16
q22 -20 26 -46q0 -17 -4 -28q-2 -10 -13 -22q-7 -11 -18 -17z" />
    <glyph glyph-name="C" unicode="C" horiz-adv-x="760" 
d="M478 437l27 -6l16 -1q20 3 24 12q2 8 -3 15.5t-14 7.5q-15 0 -23 -6l-16 -12zM787 733l-45 -34l-58 -46l-34 -27l12 -7q18 -10 22 -14q33 -27 48 -68l8 -34l2 -38q0 -40 -20 -86q-12 -29 -32 -56q-6 -7 -9 -10q-8 -9 -10 -11l-19 -17q-12 -7 -21 -12t-26 -11l-19 -7
l-20 -5l-42 -2q-19 0 -30 1t-25 6l-30 7q-12 2 -22 7l-57 25l-50 25l-34 -21l19 -12l20 -16l20 -22q5 -6 11 -16.5t9 -17.5q10 -23 10 -41q0 -15 -4 -30t-6 -26q-5 -9 -7.5 -15t-4.5 -8q-9 -13 -14 -19l-21 -21l-26 -17q-48 -29 -99 -41l-36 -6l-43 -4q-25 0 -41 5
q-15 3 -28.5 15t-27.5 38q-8 19 -8 44v11.5t4 15.5l7 19l13 16l15 11q12 7 21 9l18 5l24 4l24 4q15 4 17 9q-5 6 -9 8l-18 10l-16 15l-13 21q-9 14 -12 26l-3 30v13l7 32q3 15 13 31q5 9 13 20t20 25l24 27l26 25l35 30l39 27l36 22l9 5q5 1 37 38l26 30l54 53l55 50l63 57
l58 51l34 28l33 27l42 33l39 29l20 12l23 11l19 5l25 4q13 0 26 -5t21.5 -10.5t21.5 -19.5q6 -5 14 -17q3 -4 10 -24l5 -28q0 -11 -1 -17t-7 -17q-9 -23 -29 -40l-19 -17l-22 -17z" />
    <glyph glyph-name="D" unicode="D" horiz-adv-x="596" 
d="M371 294l64 -9l31 -5q19 -3 30 -12q10 -6 17 -17l10 -26q6 -17 6 -33l-1 -13q0 -22 -15 -48.5t-42 -33.5l-19 -2l-17 -1h-18h-16q-12 2 -17 2l-49 5l-98 13l-64 10l-32 5l-30 9q-13 3 -22 6t-24 13q-5 4 -9 7.5t-8 9.5l-12 24q-5 18 -5 32q0 15 4 30l12 30l11 16l16 22
l20 22l19 20l14 15l-33 13q-6 1 -11.5 2.5t-10.5 5.5l-23 11q-18 9 -27 33q-2 6 -2 17q0 13 7 25l17 23l49 54l15 17l19 18l33 30q16 11 27 14l22 2q17 0 32 -8q15 -5 22 -10l15 -11l13 -14l10 -16l7 -26q0 -10 -7 -25l-11 -21l-17 -27l28 -7l33 -9q19 -6 29 -22t10 -40
l-6 -24l-16 -24l-25 -26l-36 -32l48 -9z" />
    <glyph glyph-name="E" unicode="E" 
d="M486 1156l26 29l29 28l39 32l26 18l14 10l23 13l24 14l28 6q35 0 67.5 -26t44.5 -62l3 -22q0 -26 -22 -48l-14 -14l-15 -12q-18 -10 -32 -24l-19 -16q-5 -7 -14.5 -10.5t-18.5 -12.5q-2 -1 -7.5 -6.5l-8.5 -8.5q-3 -4 3 -7.5t23 -3.5l40 -1l27 -1l33 -5q10 -2 20 -9
l10 -10l8 -15l5 -15l2 -17l1 -18q0 -13 -1.5 -25t-11.5 -28q-16 -44 -62 -59l-22 -4q-12 0 -19 -2h-52l-46 9l-41 15q-23 7 -38 14.5t-36 20.5q-32 20 -53 49l-16 29q-3 4 -6 10.5t-5.5 16.5t-2.5 28q0 19 10 48l10 23l15 27l15 23q4 5 8 11q6 6 9 8zM7 1090q22 37 44 63
q15 19 27 31q6 6 33 32q22 22 62 50l16 12l18 12l37 20q24 8 44 8q54 0 95 -57l9 -18l9 -24q0 -37 -29 -67q-3 -4 -8 -9t-11 -10l-27 -18q-9 -3 -21 -15l-17 -12l-27 -17l-16 -13l-9 -9l12 -3q11 0 17 -2h34q14 0 18 -2q7 0 24 -7q28 -8 47 -39q4 -6 6 -16t2 -28
q0 -29 -5 -42q-10 -29 -28 -50q-7 -5 -14.5 -10t-17 -9.5t-19 -6.5t-22.5 -2l-27 -2l-17 -1h-16q-11 3 -15 4l-25 6l-37 13l-20 6l-18 11q-46 24 -79 60q-40 43 -44 87l-2 15q0 14 4 29t13 30z" />
    <glyph glyph-name="F" unicode="F" horiz-adv-x="1260" 
d="M625 560h67l86 1l58 6l62 9l45 9q16 0 30 7l28 13l36 20l33 20q10 7 17.5 11.5t15.5 8.5q15 5 29 5h12t20 -3.5t28.5 -14.5t20.5 -21q3 -3 6 -9.5t7 -13.5l5 -21l2 -19q0 -25 -7 -40t-11 -21t-8 -10q-7 -8 -12 -11l-30 -25l-20 -13l-25 -14l-18 -10l-28 -12l-27 -9
l-43 -13l-79 -18q-38 -5 -74 -5l-136 -3l-94 -2l-78 4l-78 4l-77 6l-32 3l-35 3l-12 -11l-16 -14l-37 -29l-21 -17l-20 -17l-31 -20q-16 -9 -40 -14l-13 -1l-14 1l-12 3q-17 3 -44 23l-18 17q-6 6 -14 22q-11 23 -11 44l2 16q0 11 9 23t21 21l29 22l-16 14l-11 16
q-11 18 -14 30t-3 29q0 14 1 19.5t6 17t7 15t7 9.5l19 26l16 15q11 11 21 14l17 10l20 7q21 7 61 7l31 -1q13 -2 32 -9l19 -9l18 -10q38 -32 47 -73l60 -9l61 -3l75 -3zM621 644q-27 0 -50 17q-11 7 -17.5 18t-7.5 27q0 20 2.5 29.5t12.5 19.5q12 18 45 27q26 0 49 -16
q23 -20 26 -45q0 -17 -2.5 -28t-13.5 -23q-7 -10 -18 -17z" />
    <glyph glyph-name="G" unicode="G" horiz-adv-x="659" 
d="M88 88q-37 0 -57 10q-7 3 -11.5 6t-12.5 10l-20 21q-13 14 -20 29q-2 7 -4 15.5t-2 18.5q0 14 2 24.5t8 20.5l11 20q2 3 9 10t16 15l9 8l96 76l101 77q30 20 77 59l45 38l41 32l39 32l23 17l27 15q13 6 30 8q13 0 25.5 -3.5t24.5 -10.5l19 -16l17 -18l14 -19l9 -15l8 -18
l7 -21l4 -12l9 -42l7 -40l1 -32v-31v-21q-2 -15 -3 -22l-7 -38l-11 -43l-15 -44q-7 -20 -18 -41q-3 -7 -8.5 -16t-10.5 -17l-18 -18q-8 -9 -20 -14q-22 -10 -41 -10l-24 1q-11 0 -21 5l-23 12l-21 17q-23 21 -23 53q0 8 7 22l9 24l15 39l9 29l7 30l2 24l1 18
q-14 -12 -29.5 -25.5t-31.5 -29.5l-80 -73l-78 -72l-21 -18l-27 -21l-28 -20q-20 -12 -43 -15zM471 690q-26 0 -50 17q-10 6 -18 19q-5 11 -7 26l2 28q3 10 13 22q12 18 45 27q26 0 49 -16q23 -20 27 -46q0 -17 -3.5 -28.5t-13.5 -21.5q-12 -20 -44 -27z" />
    <glyph glyph-name="H" unicode="H" horiz-adv-x="602" 
d="M482 641q10 -1 23 -8t19 -13q12 -11 16.5 -17.5t13.5 -21.5l9 -27l3 -21q0 -18 -21 -47l-24 -26l-15 -16l-13 -13l-24 -22l-139 -117l-141 -109q-40 -30 -83 -48l-18 -7l-23 -3l-16 1l-17 5q-10 3 -23 13q-26 23 -34 40.5t-13 34t-5 30.5q0 16 5 26q7 25 45 55l28 18
l30 18l50 31l66 47l92 65l44 35l45 39l26 23l27 21q23 16 52 16q11 0 15 -2zM465 193q-26 0 -50 17q-11 8 -18 19l-7 26q0 17 3.5 29t12.5 20q12 20 45 27q26 0 49 -15q21 -19 26 -46q0 -18 -4 -30t-13 -20q-11 -20 -44 -27z" />
    <glyph glyph-name="I" unicode="I" horiz-adv-x="5" 
d="M322 -356l35 27l30 26l33 27q7 6 15 12q13 10 21 15q15 14 38 22l13 2q12 0 29 -6q8 -3 14.5 -6t10.5 -7q9 -6 28 -35q26 -35 23 -64q-9 -38 -31 -65q-6 -9 -19 -20q-8 -7 -16 -15l-22 -17l-17 -12l-59 -46l-60 -43l-31 -21l-28 -20l-32 -20l-32 -18l-20 -7l-20 -2
q-19 0 -33 7q-8 2 -15 8t-12 11q-28 32 -38 72l-3 18q0 10 4 22q2 12 8 22.5t20 23.5l45 29l21 13l20 15q18 14 41 24zM221 -120q22 17 33 26q22 18 34 29l34 29l34 24l17 12l16 7l17 4q14 0 31.5 -6.5t28.5 -18.5l23 -29q24 -32 21 -63q-6 -41 -30 -65q-13 -19 -34 -36
q-8 -3 -19 -13l-20 -16l-60 -46l-59 -44q-6 -3 -10.5 -5.5t-12.5 -7.5l-38 -29l-31 -18l-30 -16q-15 -9 -23 -9l-20 -1q-38 0 -60 25q-25 31 -38 72l-3 18q0 10 4 21l10 27l8 9l12 11l17 12l24 16l13 6.5t12 8.5l19 15l20 13l21 11z" />
    <glyph glyph-name="J" unicode="J" horiz-adv-x="686" 
d="M47 -1q-20 0 -45 11l-14 9l-13 11q-8 6 -11 11q-9 9 -11 13l-11 17l-8 23l-4 21q0 13 6 29t25 35l25 20l80 55l73 53l51 41l-7 20l-1 15l1 18q0 12 5 23l7 18q1 3 19 23q8 10 16 14l19 11l20 8l19 4l15 1h12l13 -3l17 -7q10 -2 17 -9l31 -29l38 3l23 6q14 4 22 20
q2 5 2 15q0 9 -4 14q-10 12 -36 19l-18 8l-12 9q-8 8 -11 15l-6 22l-1 15l10 28q4 11 11 18l17 14q11 8 33 14l33 10l37 17l42 20l25 5q13 0 22 -5q24 -7 38 -26l13 -18l6 -12l4 -16l4 -21q0 -15 -13 -32l-14 -16q5 -5 12.5 -14t14.5 -20l9 -23l3 -19l1 -22l-1 -15
q0 -15 -2 -20q0 -7 -8 -26l-9 -25l-15 -26l-20 -24l-23 -20l-23 -15l-22 -10l-32 -12l-39 -10q-24 -5 -73 -10l-40 -1l-29 -28l-25 -24l-34 -32l-33 -30l-49 -44l-47 -41l-21 -17l-32 -23l-35 -22q-17 -7 -22 -8t-17 -1zM464 720q-14 0 -25 3t-24 12q-20 17 -26 46l3 28
q4 15 12 23q16 19 48 25q12 0 23 -3.5t24 -11.5q18 -17 26 -43q0 -18 -4 -30q-3 -14 -13 -22q-10 -19 -44 -27z" />
    <glyph glyph-name="K" unicode="K" horiz-adv-x="602" 
d="M482 641q10 -1 23 -8t19 -13q12 -11 16.5 -17.5t13.5 -21.5l9 -27l3 -21q0 -18 -21 -47l-24 -26l-15 -16l-13 -13l-24 -22l-139 -117l-141 -109q-40 -30 -83 -48l-18 -7l-23 -3l-16 1l-17 5q-10 3 -23 13q-26 23 -34 40.5t-13 34t-5 30.5q0 16 5 26q7 25 45 55l28 18
l30 18l50 31l66 47l92 65l44 35l45 39l26 23l27 21q23 16 52 16q11 0 15 -2zM390 688q-26 0 -48 16.5t-26 44.5l2 28q3 11 12 24q16 18 49 25q23 0 46 -16q20 -17 26 -43q0 -20 -3.5 -31.5t-12.5 -20.5q-11 -18 -45 -27z" />
    <glyph glyph-name="L" unicode="L" horiz-adv-x="653" 
d="M413 530q10 0 35 5l17 7l18 7q11 4 25 7t22 3q13 0 32 -10q19 -7 33 -22t26 -36l4 -22l-1 -12q-6 -24 -13 -33l-15 -22l-29 -32l-52 -46l-50 -43l-49 -39l-45 -35l-46 -35l-41 -31l-51 -39l-55 -39l-35 -21l-33 -20q-9 -4 -18 -6t-25 -2l-30 4q-5 2 -12 5t-15 8
q-12 5 -22 18l-17 17l-11 20l-7 20l-2 15l3 22l9 20q3 7 14 17l26 20l25 19l25 17l33 21l51 35l26 21l29 21l17 14l24 20l-18 3q-8 0 -22 6l-21 9l-22 14l-14 15l-10 15q-4 7 -8.5 16.5t-6.5 17t-3 14.5t-2 15l1 27q2 13 8 26l13 29q8 15 22 29l23 24l17 17l15 12l20 15
q26 18 55 26q11 3 15.5 4t17.5 1t21 -2q11 0 22 -4l21 -11q4 -3 9.5 -6.5t7.5 -6.5l14 -15q10 -18 10 -39l-2 -18l-5 -15l-10 -18q-2 -5 -3.5 -11.5t-1.5 -11.5q0 -15 17 -15z" />
    <glyph glyph-name="M" unicode="M" horiz-adv-x="100" 
 />
    <glyph glyph-name="N" unicode="N" horiz-adv-x="701" 
d="M359 628q8 7 12 10t14 7q17 9 39 9l16 -3q9 -3 23 -18q9 -16 13 -41l29 21l40 27q8 5 17.5 8t19.5 3q17 0 36 -10q29 -11 47 -39l12 -26q2 -5 2.5 -10t1.5 -10l-1 -21l-9 -22q-6 -13 -8.5 -17t-12.5 -18l-34 -32l-27 -22q-17 -12 -59 -32q-26 -11 -50 -16l-29 -3l-32 3
l-17 6l-13 11q-5 6 -16 23l-63 -5l-28 -33l-30 -39l-19 -30l-11 -22l-1 -19q0 -26 28 -42q32 -21 95 -30l17 -1h12h19l17 2l44 9l58 7l12 1q17 0 25 -4q9 -1 21.5 -9t21.5 -26t9 -41t-3 -34t-16 -30q-9 -13 -12.5 -17t-12 -10.5t-15.5 -10.5t-23 -10q-72 -22 -188 -22
q-18 0 -28 1t-30 6l-60 15l-36 13l-36 18q-25 13 -45 29q-7 6 -14.5 13.5t-17.5 19.5l-17 21q-2 2 -5.5 7t-10.5 18l-12 25l-9 30l-3 34l1 23q0 8 7 29q9 41 43 90l28 37l23 26l23 25q-7 12 -13 33l-2 14l-1 18v11l4 20l9 22l14 16l14 13l17 10l19 8l21 6l24 2q30 0 45 -8
l18 -10l17 -16l13 -17z" />
    <glyph glyph-name="O" unicode="O" 
d="M303 1108l-26 -26q-19 -22 -36 -51l-5 -19l2 -13q4 -11 25 -16l16 3l21 3q12 0 30.5 -5.5t31.5 -16.5q11 -7 25 -21q7 -7 12 -22l11 -27l1 -12q0 -13 -5 -27q-1 -6 -3.5 -11.5t-8 -18t-18.5 -22.5l-31 -18q-12 -6 -22 -9t-23 -5q-20 -5 -53 -5q-12 0 -25 4l-28 8l-34 12
q-29 12 -57 36l-26 25l-21 30q-3 5 -7.5 15t-7.5 18l-8 33l-3 49q0 28 3.5 49t9 36t8.5 22q8 21 26 46l38 46q15 18 32 34.5t42 37.5q51 41 77 56l33 15l64 27l49 16q12 3 25 5t28 2h20t23 -4l41 -10q16 -5 24.5 -9t20.5 -12q20 -11 37 -30l19 -25l8 -13l19 -38l7 -28l4 -30
l1 -17q0 -18 -5 -37q-3 -18 -7.5 -32t-9 -23.5t-14 -21.5t-22.5 -25l-25 -25l-27 -19q-33 -18 -60 -18l-23 3l-24 9q-18 6 -26 16l-21 23q-8 11 -14 28l-3 18q0 22 16 34l27 25q19 18 16 37q0 8 -5.5 14t-16.5 9q-7 0 -24 -7l-26 -11q-5 -2 -18 -10q-3 -1 -7 -4l-30 -22
l-28 -20z" />
    <glyph glyph-name="P" unicode="P" horiz-adv-x="569" 
d="M483 606q12 -7 18 -13l18 -15q10 -9 13 -18q3 -5 5 -23l-2 -12q0 -4 -5 -12l-12 -14l-26 -25l-23 -18q3 -2 13 -14q6 -7 7 -9l8 -16l2 -12q0 -16 -7 -30q-4 -11 -18 -30l-11 -13l-16 -17l-44 -42l-45 -39l-46 -39l-32 -27l-36 -30l-30 -24l-54 -43l-24 -19l-30 -20
l-17 -9l-17 -6q-11 -3 -24 -3l-20 3q-11 3 -32 17l-17 13l-15 16q-8 10 -12 20q-8 11 -12 24l-3 23q0 29 16 57q2 4 14 14l22 15l59 39l72 48l58 42l45 36l20 16l20 17q-26 20 -32 37q-6 8 -6 24t11 30l20 22l18 17l18 16l-23 24l-10 16l-4 11l-1 12l2 18q4 12 12 24
q3 3 10.5 9.5t13.5 9.5l32 20l42 23q10 6 29.5 15.5t27.5 12.5l17 2q15 0 25 -5q14 -5 29 -21l13 -16l11 -18l4 -17l3 -14l-3 -17q-2 -6 -12 -18l-14 -15zM423 32q-15 0 -32 6q-12 6 -16.5 9t-13.5 13q-27 27 -27 61q0 37 27 64q25 28 62 28q12 0 24 -4q12 -1 23 -8t18 -16
l15 -18q12 -22 12 -46q0 -35 -26 -64q-26 -25 -66 -25z" />
    <glyph glyph-name="Q" unicode="Q" horiz-adv-x="1385" 
d="M756 1258q0 -73 -28 -117.5t-70 -44.5q-19 0 -31 3q-10 4 -35 21q-25 -55 -49 -76q-13 -11 -27 -17t-31 -6q-30 0 -55 31q-23 31 -23 74q0 29 19 105l12 2q0 -56 14 -79q15 -21 42 -21q36 0 57 40q10 20 16 46t6 69l17 7q10 -41 28 -67q20 -26 40 -26q25 0 45 36
q18 36 18 91v12v8l-1 6l14 11l10 -30l7 -28l4 -22zM1058 402q0 -107 -38.5 -171t-103.5 -64q-47 0 -85 30q-31 31 -67 107q-30 -85 -74.5 -125t-116.5 -40t-116.5 38t-79.5 131q-22 -54 -58.5 -79t-96.5 -25q-31 0 -57 6q-15 5 -25 10t-23 15q-42 30 -42 76l3 27l11 35
l42 95q25 45 61.5 71.5t141.5 70.5q0 99 14 131t89 84l30 -306q9 -94 34 -129q27 -33 84 -33q39 0 69 26.5t30 62.5l-3 32l-3 19l-6 21l-39 174q-23 92 -23 135q0 32 19 77l25 48l42 64l54 -234q29 -145 45 -200q13 -50 26 -84t30 -60q32 -56 79 -56q14 0 20.5 10t8.5 29
q0 23 -7 55l-7 32l-11 40l-49 185l-16 63q-9 30 -9 47q0 27 15 65q7 16 22 43t39 66l34 -139l40 -174q24 -101 37 -175l8 -66zM352 438l-6 81q-62 -15 -112 -42t-50 -45q0 -8 22 -21l23 -9l23 -2l24 1q9 0 22 7q20 5 54 30zM1307 434q0 -72 -9 -114q-6 -37 -39 -125h-38
q0 66 -1.5 120t-11.5 123l-25 146q-26 164 -29 172q-1 9 -2.5 21.5t-15.5 79.5q-2 24 -3 32.5t-5 26.5l-3 50q0 44 21 83q21 36 93 115q0 -33 1.5 -70.5t2.5 -60.5q0 -31 3 -54.5t9 -54.5l23 -147l13 -95q3 -24 5 -48t2 -48q0 -39 4.5 -91.5t4.5 -60.5z" />
    <glyph glyph-name="R" unicode="R" horiz-adv-x="704" 
d="M397 691q-15 0 -25.5 3t-23.5 13q-20 16 -26 45l3 28q4 15 12 23q16 19 48 26q22 0 47 -16q18 -16 26 -43q0 -18 -4 -31t-13 -21q-10 -19 -44 -27zM29 121l-27 12q-11 7 -16.5 11t-11.5 12q-10 11 -21 32l-9 26q-1 4 -2.5 11.5t-2.5 15.5v11t4 17q3 14 24 29l42 29l38 28
l36 26l44 30l21 14l22 17l29 24l-9 20q-6 18 -9 40l2 34q3 16 26 44q13 19 52 34l37 3l24 -1q13 0 31 -11l38 -21l31 22l64 50l34 26l37 22q23 11 36 14l24 3l15 -3q7 -1 16 -7q6 -2 17 -12l12 -12l12 -15l6 -18l7 -23l-1 -21q0 -7 -6 -17.5t-21 -25.5l-35 -29l-27 -22
l-25 -19l-30 -21l8 -5q8 -3 20 -14q8 -8 13 -16t8 -17l4 -24l-4 -23q-3 -17 -14 -30l-11 -15l-11 -11q-20 -15 -34 -20l-20 -6l-17 -2l-24 -2l-17 -1l-31 1q-5 1 -10 1.5t-15 4.5l-44 14l-23 -18l-17 -15l-56 -48l-44 -37l-48 -37l-29 -22l-18 -12l-26 -14l-24 -9l-26 -5z
" />
    <glyph glyph-name="S" unicode="S" horiz-adv-x="742" 
d="M489 588l38 12q6 2 14.5 5.5t17.5 8.5l27 19q11 7 27 12l30 4h11l13 -3q6 0 15 -6q7 -2 21 -15q18 -18 24.5 -38.5t6.5 -40.5q0 -24 -13 -49q-20 -35 -85 -68q-31 -15 -78.5 -26t-101.5 -17l-34 -2l-19 -21l-19 -20l-52 -48l-32 -29l-91 -73l-21 -16l-30 -21l-41 -23
q-27 -12 -46 -12q-51 0 -80 35q-8 10 -12 17t-12 22q-3 7 -6 18t-3 24q0 12 8 24q3 7 12 16l13 13l6.5 6.5t12.5 9.5l27 18l46 29l50 35l50 36l24 17l28 23l-10 14q-4 15 -6 18l-3 13l-1 12l1 21l3 19q3 14 11 23q22 28 40 39.5t51 17.5l35 3l26 -3q13 -2 24 -8l17 -11
l12 -13l5 -12l6 -13h19z" />
    <glyph glyph-name="T" unicode="T" horiz-adv-x="764" 
d="M257 481q15 -3 28 11l10 14q3 9 -2 13q-3 6 -9 7h-10q-25 -7 -29 -30q0 -4 5 -11zM494 507l11 1l21 8q14 5 15 21q3 11 -11 13q-14 0 -22 -5l-10 -10q-5 -3 -6 -6l-11 -23zM273 263l-4 -16q0 -12 11 -26l25 -19l37 -9l31 -2h30l28 4l29 6l29 7l53 13l24 2l13 1h12.5
t18.5 -4l20 -11q7 -6 15.5 -17.5t14.5 -35.5l1 -14v-12l-3 -27q-6 -29 -18 -42.5t-30 -25.5q-6 -4 -17.5 -9.5t-22.5 -9.5l-38 -10l-45 -7l-61 -4h-73q-33 0 -72 8t-40 8q-16 6 -23 9q-32 9 -56.5 20t-42.5 24l-35 30q-15 16 -23 32l-12 26q-1 4 -3 12.5t-4 13.5l-3 35
q0 16 1 24t7 24q3 16 10 27l15 19l28 30l18 20l-14 9l-12 11q-8 7 -12 11t-12 15l-10 15l-8 18l-7 25l-2 27v12l2 14l1 16l7 18l11 27l6 11l7 14l18 25l24 28l19 17q5 4 9 7t21 14q23 14 51 18l38 6h14q24 0 41.5 -4.5t23.5 -6.5t19 -10l20 -13l22 -15l22 17q26 20 53 31
l36 15q8 3 16 4t20 1h43q19 0 45 -9l20 -7l20 -12q8 -6 15 -12t11 -13q6 -6 16 -22l9 -19l7 -26l4 -24q0 -16 -2 -21q0 -6 -1 -11q-4 -15 -7 -25q-4 -24 -16 -46l-20 -31q-3 -5 -6 -9q-6 -8 -15 -17q-19 -19 -35 -33.5t-33 -25.5l-30 -15l-29 -15l-41 -14l-44 -10
q-24 -4 -56.5 -7t-61.5 -3h-28l-19 -20q-9 -11 -15 -24z" />
    <glyph glyph-name="U" unicode="U" 
d="M655 1302l33 -8l29 -9q13 -5 26.5 -11t17.5 -9q19 -9 39 -28t29.5 -35.5t12.5 -34.5l2 -23q0 -18 -2.5 -28.5t-9 -24.5t-21.5 -34l-28 -36q-12 -14 -24 -25q-4 -4 -29 -25l-75 -59l-22 -17l-30 -22l-39 -25q-18 -13 -34 -19l-36 -4q-18 0 -26 2q-16 5 -23.5 9.5
t-14.5 9.5q-5 6 -7 9q-8 8 -16 24l-10 18l-7 25l-2 20q0 18 3 26t5 12.5t7 13t22 20.5l19 10l21 11l31 17l47 25l16 10l18 16l-36 3l-22 3l-17 4l-20 6q-15 7 -23 20q-14 23 -18 37l-3 21v16q0 22 11 41q3 6 9 14q1 2 13 16q5 5 14 11.5t19 11.5q26 13 53 13h10l17 -3l24 -3
zM144 850l-22 -10q-10 -6 -21 -8.5t-24 -2.5h-18q-7 0 -15 4l-11 6l-14 10l-21 23q-17 26 -20 51q-3 10 -5 29q0 15 5 25.5t11 16.5q4 7 12 11l24 14l18 10q8 4 17 9q14 8 19 12l23 15q24 16 31 22q16 14 25 21l-25 1l-26 1q-34 3 -37 5l-25 12q-28 18 -37 48l-4 19v12l1 17
q0 7 6 21l11 18q19 22 36 34l31 12l36 4q31 0 45 -1.5t40 -6.5l42 -8q13 -2 22 -6t17 -6.5t23.5 -8.5t29.5 -13t31 -24q11 -11 22 -30q12 -17 15 -34l4 -30q0 -37 -19 -64q-22 -38 -53 -69q-22 -25 -38 -38q-20 -20 -49 -43l-37 -28l-46 -33l-15 -11z" />
    <glyph glyph-name="V" unicode="V" horiz-adv-x="611" 
d="M306 425l10 -1q10 3 14 5l14 10l10 15q0 12 -10 21q-13 1 -24 -4q-5 -2 -9.5 -5t-10.5 -9.5t-6 -18.5q0 -5 12 -13zM144 317l-29 24l-16 19q-12 13 -22 43l-3 21l-1 20v15.5t4 22.5l14 32l20 27q14 20 42 42l30 21l33 17l34 12l40 9q38 9 77 9h23t22 -2q15 0 42 -10
q14 -5 23.5 -9.5t20 -11t17.5 -12.5q2 -2 20 -17q8 -6 11 -11l11 -13l10 -19q4 -7 9 -24l4 -36q0 -14 -2 -20l-6 -21l-13 -27l-16 -23l-23 -26q-6 -8 -11.5 -14t-12.5 -11l-24 -24l-16 -14l-66 -57l-45 -38l-47 -35l-54 -42l-54 -40l-34 -23l-14 -10l-16 -10
q-36 -17 -66 -17q-27 3 -56 20q-11 5 -18.5 13.5t-17.5 26.5q-11 27 -11 47l2 15l9 24l18 26l30 24l54 35l34 23q18 11 22 14t18 15zM323 679q-26 0 -50 17q-10 6 -16.5 17t-8.5 28l2 28q3 11 13 21q14 20 45 27q14 0 25 -3t24 -12q23 -21 27 -46q0 -18 -3.5 -29t-13.5 -21
q-12 -20 -44 -27z" />
    <glyph glyph-name="W" unicode="W" horiz-adv-x="5" 
d="M337 1125l67 54l25 20l42 32l16 11q3 3 18 9l18 3q15 0 30 -7q14 -4 29 -17l22 -29q23 -29 23 -53l-1 -9q-6 -43 -31 -68l-15 -15l-21 -19l-37 -30l-34 -28l-24 -17l-56 -41l-33 -23l-32 -22l-31 -19l-30 -16q-13 -7 -23 -9l-21 -1q-15 0 -30.5 6t-27.5 19q-27 32 -39 72
l-2 18q0 10 5 28l8 20q6 8 10 12l9 9l44 29l82 54l21 14zM206 1327l25 17l20 17l35 29l34 25q7 6 13 10q12 8 25 12l13 2q15 0 30 -7q17 -6 30 -19l21 -29q10 -11 17 -30t7 -33q0 -20 -4 -31l-15 -26l-13 -14l-19 -14l-34 -25l-28 -22l-31 -23l-59 -44l-61 -43l-32 -21
l-31 -15l-21 -8l-20 -1q-15 0 -33 6q-13 6 -26 20q-26 33 -38 72q-3 9 -3 19q0 19 12 46l6 9l14 12l45 29l41 28l41 25l18 12z" />
    <glyph glyph-name="X" unicode="X" horiz-adv-x="750" 
d="M89 -70q-25 8 -49 35q-5 5 -9 12t-7 14t-7 25l-3 26q0 19 7 36q1 3 6 10.5t8 11.5q12 12 21 14l21 6l17 5l30 8q15 5 31 16l-15 13l-18 14l-14 11l-14 15q-29 31 -29 68v19q0 12 8 28l17 35l21 31l16 20l32 35q25 27 49 45l81 63q24 17 80 50l30 17q10 5 23.5 10.5t29 11
t27.5 7.5t29 2l19 1q19 0 46 -5q19 -5 60 -26q16 -9 31 -25l27 -35q15 -27 26 -66l4 -45v-15l-3 -21l-3 -20l-9 -30l-9 -24l-10 -16q-19 -36 -47 -59q-20 -18 -52 -29l-23 -6l-22 -1h-24l-24 1q-18 0 -26.5 1.5t-27.5 6.5l-38 10q-19 6 -25 8q-13 5 -28 14l-16 7
q-13 8 -25 16l-24 -21q17 -11 21 -16q5 -1 22 -17t22 -24l15 -29l7 -22l3 -21l-2 -21l-4 -27q-3 -14 -10 -25l-18 -28l-25 -26l-34 -27l-38 -24l-30 -15l-27 -10l-45 -7h-25h-16zM533 444q-5 9 -14 11q-4 -2 -7 -3q-10 -5 -19.5 -11.5t-19.5 -17.5l19 -5l16 -2q18 0 25 10
l2 11q-1 6 -2 7zM390 636q-28 0 -49 16.5t-25 44.5l2 28q3 12 12 23q16 18 49 26q23 0 46 -16q20 -17 26 -43q0 -21 -3.5 -32t-12.5 -20q-12 -19 -45 -27zM647 637q-15 0 -26.5 3.5t-22.5 12.5q-22 19 -25 45q0 20 2.5 29t12.5 19q18 22 47 29q15 0 26 -3.5t23 -12.5
q12 -12 17 -22q5 -6 8 -24l-3 -28l-13 -21q-6 -8 -20 -18q-4 -3 -12.5 -5.5t-13.5 -3.5zM516 733q-28 0 -51 16q-12 8 -16.5 17.5t-8.5 27.5q0 17 3 28t13 21q14 20 45 27q26 0 49 -15q21 -19 26 -46l-3 -29q-3 -12 -14 -21q-4 -9 -16 -16t-27 -10z" />
    <glyph glyph-name="Y" unicode="Y" horiz-adv-x="750" 
d="M89 -70q-25 8 -49 35q-5 5 -9 12t-7 14t-7 25l-3 26q0 19 7 36q1 3 6 10.5t8 11.5q12 12 21 14l21 6l17 5l30 8q15 5 31 16l-15 13l-18 14l-14 11l-14 15q-29 31 -29 68v19q0 12 8 28l17 35l21 31l16 20l32 35q25 27 49 45l81 63q24 17 80 50l30 17q10 5 23.5 10.5t29 11
t27.5 7.5t29 2l19 1q19 0 46 -5q19 -5 60 -26q16 -9 31 -25l27 -35q15 -27 26 -66l4 -45v-15l-3 -21l-3 -20l-9 -30l-9 -24l-10 -16q-19 -36 -47 -59q-20 -18 -52 -29l-23 -6l-22 -1h-24l-24 1q-18 0 -26.5 1.5t-27.5 6.5l-38 10q-19 6 -25 8q-13 5 -28 14l-16 7
q-13 8 -25 16l-24 -21q17 -11 21 -16q5 -1 22 -17t22 -24l15 -29l7 -22l3 -21l-2 -21l-4 -27q-3 -14 -10 -25l-18 -28l-25 -26l-34 -27l-38 -24l-30 -15l-27 -10l-45 -7h-25h-16zM533 444q-5 9 -14 11q-4 -2 -7 -3q-10 -5 -19.5 -11.5t-19.5 -17.5l19 -5l16 -2q18 0 25 10
l2 11q-1 6 -2 7zM524 52q-25 0 -50 17q-11 7 -18 19q-3 5 -5 13.5t-2 12.5l2 27q3 11 14 22q11 18 44 27q25 0 50 -16q22 -20 26 -46q0 -17 -4 -28q-2 -10 -13 -22q-7 -11 -18 -17z" />
    <glyph glyph-name="Z" unicode="Z" horiz-adv-x="750" 
d="M89 -70q-25 8 -49 35q-5 5 -9 12t-7 14t-7 25l-3 26q0 19 7 36q1 3 6 10.5t8 11.5q12 12 21 14l21 6l17 5l30 8q15 5 31 16l-15 13l-18 14l-14 11l-14 15q-29 31 -29 68v19q0 12 8 28l17 35l21 31l16 20l32 35q25 27 49 45l81 63q24 17 80 50l30 17q10 5 23.5 10.5t29 11
t27.5 7.5t29 2l19 1q19 0 46 -5q19 -5 60 -26q16 -9 31 -25l27 -35q15 -27 26 -66l4 -45v-15l-3 -21l-3 -20l-9 -30l-9 -24l-10 -16q-19 -36 -47 -59q-20 -18 -52 -29l-23 -6l-22 -1h-24l-24 1q-18 0 -26.5 1.5t-27.5 6.5l-38 10q-19 6 -25 8q-13 5 -28 14l-16 7
q-13 8 -25 16l-24 -21q17 -11 21 -16q5 -1 22 -17t22 -24l15 -29l7 -22l3 -21l-2 -21l-4 -27q-3 -14 -10 -25l-18 -28l-25 -26l-34 -27l-38 -24l-30 -15l-27 -10l-45 -7h-25h-16zM533 444q-5 9 -14 11q-4 -2 -7 -3q-10 -5 -19.5 -11.5t-19.5 -17.5l19 -5l16 -2q18 0 25 10
l2 11q-1 6 -2 7zM500 669q-26 0 -49 16q-20 17 -26 46l3 28q3 13 12 23q16 18 49 25q23 0 46 -16q20 -17 26 -43l-3 -29q-3 -11 -13 -23q-11 -18 -45 -27z" />
    <glyph glyph-name="bracketleft" unicode="[" horiz-adv-x="426" 
d="M215 1214v-1028h104q36 0 64 -22q12 -12 16 -26q6 -15 9 -38q0 -38 -27 -64q-21 -24 -62 -24h-213q-104 0 -104 104v1168q0 106 104 106h213q36 0 62 -24q15 -14 19.5 -26t7.5 -38q0 -40 -27 -63q-25 -25 -62 -25h-104z" />
    <glyph glyph-name="backslash" unicode="\" horiz-adv-x="625" 
d="M490 317l-415 788l-42 89q-8 18 -11 30.5t-3 25.5q0 84 83 84q33 0 63 -34q15 -19 29.5 -42t28.5 -51l414 -788q59 -113 59 -147q0 -38 -24 -62q-11 -8 -27 -14t-37 -6q-26 0 -45 18q-20 14 -39 43z" />
    <glyph glyph-name="bracketright" unicode="]" horiz-adv-x="426" 
d="M211 1158h-107q-36 0 -61 25q-24 27 -24 63q0 34 24 64q7 5 10 7q9 6 18 10q16 7 33 7h212q104 0 104 -106v-1167q0 -105 -104 -105h-212q-34 0 -61 24q-5 5 -9.5 12t-9.5 15q-5 13 -5 37q0 20 5.5 35t18.5 29q26 24 61 24h107v1026z" />
    <glyph glyph-name="asciicircum" unicode="^" horiz-adv-x="922" 
d="M637 713l-174 319l-174 -319q-31 -61 -108 -61q-79 0 -79 57q0 31 21 66l237 431q18 37 43 52l28 10q7 2 13.5 3.5t18.5 1.5q64 0 100 -67l236 -431l15 -34q5 -15 5 -32q0 -57 -78 -57q-67 0 -104 61z" />
    <glyph glyph-name="underscore" unicode="_" horiz-adv-x="768" 
d="M805 -742h-768l-15 3l-15 7q-14 8 -14 29q0 7 1.5 14t10.5 17q11 8 32 8h768l18 -1q8 -2 15 -7q2 -2 7 -11l5 -20q0 -19 -13 -27.5t-32 -11.5z" />
    <glyph glyph-name="grave" unicode="`" horiz-adv-x="342" 
d="M-51 1193q-53 19 -53 84q0 47 29 75q26 30 68 30q29 0 70 -14l230 -98q27 -12 40 -31.5t13 -53.5q0 -44 -29 -76t-71 -32q-21 4 -34 8t-31 11z" />
    <glyph glyph-name="a" unicode="a" horiz-adv-x="653" 
d="M62 110q-36 0 -50.5 7.5t-26.5 17.5l-20 20l-19 28q-7 14 -7 34l1 21q1 9 9 23l11 20l19 19l14 12l46 38l48 35l98 76q9 6 25.5 18.5t31.5 25.5l60 50l41 31l38 30l22 18l25 14q14 7 32 7l23 -3q12 -3 22 -10l20 -15l17 -17l15 -21l12 -26l8 -25l4 -12l5 -20q1 -11 3 -21
l7 -33q3 -12 3 -31v-36q0 -22 -4 -41l-7 -37l-24 -86l-16 -36q-3 -7 -7 -13.5t-13 -19.5l-18 -19q-8 -8 -22.5 -14.5t-19.5 -7.5t-17 -1l-24 1q-9 0 -20 4t-23 13l-18 16q-23 21 -23 52q0 9 4 20l11 24l15 38q8 20 14 63l2 19l1 17l-59 -54l-77 -72l-75 -69l-21 -17l-27 -21
l-36 -26q-14 -5 -33 -8z" />
    <glyph glyph-name="b" unicode="b" horiz-adv-x="802" 
d="M265 164l-30 4q-12 0 -38 10q-36 10 -68 31l-21 14l-23 22q-9 6 -15 16l-18 27l-10 17l-8 20l-12 29l-2 30v24l1 17l4 17l6 19l5 13q2 4 6.5 12.5t9.5 15.5q20 27 42.5 50.5t53.5 45.5l34 19q14 10 48 20l25 3l30 2h25l29 -5l32 -14q14 -9 17.5 -13t8.5 -9l17 -19l24 16
l28 15l22 11l21 8l15 5l27 6l27 4h14l15 1q15 0 38 -6l21 -6l21 -9l22 -14l20 -18l21 -23q8 -10 15 -26l10 -27q5 -20 5 -41q0 -28 -12 -64l-8 -22l-13 -26l-15 -21l-28 -28l-26 -23l-25 -19q-5 -4 -19 -13q-3 -2 -7 -5l-29 -18l-35 -17l-33 -13l-37 -14l-42 -13l-32 -8
l-33 -6l-33 -4l-40 -2zM479 404l28 1l12 3l13 6l7 11l1 12q-4 10 -18 13l-15 -3l-14 -9l-14 -13l-9 -10l-8 -11h17zM248 390l17 1l13 7l13 14q3 4 4 7.5t2 5.5q0 5 -8 11l-16 3l-12 -2q-9 -3 -16 -10q-6 -4 -9 -17q-4 -20 12 -20z" />
    <glyph glyph-name="c" unicode="c" 
d="M589 965q-26 -34 -62 -63q-32 -24 -58 -33q-11 -4 -26 -8.5t-34 -9t-44 -4.5q-19 0 -29 1t-40 7.5t-56 18.5t-52 37q-9 11 -11 14q-5 6 -9 16l-16 51q-11 38 -11 88q0 21 12 53q5 17 21 44q7 10 26 33.5t22 26.5q24 25 53 42q47 27 131 44q24 0 35 -2q17 0 35 -7
q41 -11 65 -26q33 -24 59 -62q36 -56 36 -133q0 -35 -11 -66q-7 -18 -14.5 -31t-21.5 -31zM399 1054q13 5 19 30q0 14 -2 18q0 6 -6 10t-9 5t-5 2l-13 -4l-23 -15q-13 -16 -12 -29q0 -17 19 -27q23 0 32 10z" />
    <glyph glyph-name="d" unicode="d" horiz-adv-x="686" 
d="M47 -1q-20 0 -45 11l-14 9l-13 11q-8 6 -11 11q-9 9 -11 13l-11 17l-8 23l-4 21q0 13 6 29t25 35l25 20l80 55l73 53l51 41l-7 20l-1 15l1 18q0 12 5 23l7 18q1 3 19 23q8 10 16 14l19 11l20 8l19 4l15 1h12l13 -3l17 -7q10 -2 17 -9l31 -29l38 3l23 6q14 4 22 20
q2 5 2 15q0 9 -4 14q-10 12 -36 19l-18 8l-12 9q-8 8 -11 15l-6 22l-1 15l10 28q4 11 11 18l17 14q11 8 33 14l33 10l37 17l42 20l25 5q13 0 22 -5q24 -7 38 -26l13 -18l6 -12l4 -16l4 -21q0 -15 -13 -32l-14 -16q5 -5 12.5 -14t14.5 -20l9 -23l3 -19l1 -22l-1 -15
q0 -15 -2 -20q0 -7 -8 -26l-9 -25l-15 -26l-20 -24l-23 -20l-23 -15l-22 -10l-32 -12l-39 -10q-24 -5 -73 -10l-40 -1l-29 -28l-25 -24l-34 -32l-33 -30l-49 -44l-47 -41l-21 -17l-32 -23l-35 -22q-17 -7 -22 -8t-17 -1z" />
    <glyph glyph-name="e" unicode="e" 
d="M548 898q-11 -25 -34 -39t-61 -20q-14 0 -19 -2h-14q-17 0 -38.5 3t-39 7t-30 8t-24.5 10q-24 11 -48 27q-51 32 -71 79l-8 27q-6 21 -6 42q0 22 9 40l18 34q9 20 30 44l36 40l43 46l26 22l26 19l29 17q26 15 50 15q14 0 35 -8q12 -5 29 -19.5t24.5 -29t10.5 -31.5l3 -31
q0 -8 -3 -15.5t-8 -15.5l-21 -21l-53 -44l-29 -25l-27 -24q16 -7 36 -7h38l18 -1l22 -2q27 -6 42 -25l7 -14l9 -16l4 -16l1 -20l-1 -13l-2 -16l-3 -11z" />
    <glyph glyph-name="f" unicode="f" horiz-adv-x="547" 
d="M483 606q12 -7 18 -13l18 -15q10 -9 13 -18q3 -5 5 -23l-2 -12q0 -4 -5 -12l-12 -14l-26 -25l-23 -18q3 -2 13 -14q6 -7 7 -9l8 -16l2 -12q0 -16 -7 -30q-4 -11 -18 -30l-11 -13l-16 -17l-44 -42l-45 -39l-46 -39l-32 -27l-36 -30l-30 -24l-54 -43l-24 -19l-30 -20
l-17 -9l-17 -6q-11 -3 -24 -3l-20 3q-11 3 -32 17l-17 13l-15 16q-8 10 -12 20q-8 11 -12 24l-3 23q0 29 16 57q2 4 14 14l22 15l59 39l72 48l58 42l45 36l20 16l20 17q-26 20 -32 37q-6 8 -6 24t11 30l20 22l18 17l18 16l-23 24l-10 16l-4 11l-1 12l2 18q4 12 12 24
q3 3 10.5 9.5t13.5 9.5l32 20l42 23q10 6 29.5 15.5t27.5 12.5l17 2q15 0 25 -5q14 -5 29 -21l13 -16l11 -18l4 -17l3 -14l-3 -17q-2 -6 -12 -18l-14 -15z" />
    <glyph glyph-name="g" unicode="g" horiz-adv-x="514" 
d="M12 38q-23 10 -33 21q-11 10 -23 29l-13 27l-5 21l-2 19l2 17q2 15 6 24l9 17l8 13q5 9 18 15q9 8 21 11l21 4l37 4l24 5l53 12q25 6 27 12l-7 10l-23 25l-12 16l-12 19l-8 18l-4 22q0 18 6.5 37.5t15.5 29.5l28 29l34 32l31 23l97 62l24 13l22 8l25 4l15 -2l14 -3l17 -6
q9 -3 23 -14q16 -20 27 -47l5 -26l2 -14l-2 -11q-3 -25 -20 -42l-23 -21l-34 -26l-35 -23l-30 -19q23 -24 31 -42l10 -22l9 -25l3 -18l1 -16q0 -17 -5.5 -36.5t-15.5 -33.5l-24 -27l-23 -22l-30 -25l-26 -16l-20 -11l-28 -13l-36 -14l-30 -11l-26 -7l-33 -6l-32 -4h-14h-22
q-11 3 -15 4z" />
    <glyph glyph-name="h" unicode="h" horiz-adv-x="573" 
d="M482 641q10 -1 23 -8t19 -13q12 -11 16.5 -17.5t13.5 -21.5l9 -27l3 -21q0 -18 -21 -47l-24 -26l-15 -16l-13 -13l-24 -22l-139 -117l-141 -109q-40 -30 -83 -48l-18 -7l-23 -3l-16 1l-17 5q-10 3 -23 13q-26 23 -34 40.5t-13 34t-5 30.5q0 16 5 26q7 25 45 55l28 18
l30 18l50 31l66 47l92 65l44 35l45 39l26 23l27 21q23 16 52 16q11 0 15 -2z" />
    <glyph glyph-name="i" unicode="i" 
d="M215 -145q34 27 41 32q14 11 26 23l35 29l33 24l18 12l16 8q6 3 16 3q15 0 32 -6.5t29 -18.5l22 -29q12 -15 17 -31t5 -32q-6 -41 -30 -65q-12 -18 -35 -36q-10 -5 -18 -13l-21 -16l-59 -46l-60 -44l-22 -13l-38 -29l-31 -18l-31 -16q-12 -8 -22 -10l-21 -1
q-36 0 -59.5 27t-37.5 71l-3 18l3 21q3 13 11 26l7 10l12 11l17 12l24 16q11 5 14.5 7t10.5 8l19 15l20 13l21 11z" />
    <glyph glyph-name="j" unicode="j" horiz-adv-x="614" 
d="M20 139q-8 15 -12 34l-2 44l3 33q3 14 15 37l14 25l17 21l12 15l21 22l18 18l-7 26l-2 19q0 21 4 34t24 36q12 13 29 24q4 2 17.5 7t22.5 8l14 1l16 1q26 0 43.5 -8t28.5 -20l18 -25q9 -11 28 -11l15 3q7 2 10 3t7 4q9 3 12 8l8 11l2 13q0 8 -3.5 14.5t-11.5 14.5t-20 12
l-17 6q-15 7 -23 18q-5 9 -5 20l3 16q16 33 66 43l14 2l25 7l3 1l50 19q8 3 25 5q14 0 30 -8l22 -18l18 -19q7 -16 7 -31l-1 -12l-7 -23l-14 -22l16 -21l7 -14l4 -16v-31q-3 -32 -6.5 -40t-5 -13.5t-6.5 -14.5t-8 -14.5t-7 -10.5q-12 -17 -27 -28q-28 -23 -53 -35.5
t-60 -18.5l-52 -6l-49 -1l-32 3l-22 3l-12 -10l-9 -10l-13 -16l-11 -21l-6 -22l4 -15l10 -11l15 -10q20 -11 38 -11l51 -1l55 1l83 3h11.5t15.5 -3.5t17 -13.5q14 -15 15 -28l3 -28l1 -16l-5 -25q-1 -7 -9 -18q-9 -16 -18 -20l-16 -11l-20 -7l-15 -4l-30 -8l-27 -3h-20h-50
l-48 3l-36 5l-29 7l-29 7l-31 12l-34 17l-28 17q-4 3 -14 12q-14 14 -16 15q-11 13 -29 43z" />
    <glyph glyph-name="k" unicode="k" horiz-adv-x="711" 
d="M40 206l-7 22l-4 35l3 22l8 21l17 51l9 29l3 22l1 24v52v31v31q0 19 3.5 34t20.5 37l8 9l17 11q25 11 49 11l20 -3q14 -2 21 -5q10 -1 19 -7l21 -17q13 -15 22 -40.5t9 -46.5v-13l-1 -9l-2 -13l-1 -16l-10 -55l37 25l27 19l37 29l39 33l55 45l38 31l39 26l21 10
q13 5 25 5q13 0 18 -2q31 -6 56 -32q9 -12 13.5 -21t10.5 -29l1 -18v-16l-5 -27q-1 -4 -12.5 -22t-20.5 -27l-21 -20l-35 -30l-42 -33l-42 -34l-40 -31q-23 -19 -58 -41l-40 -27l-74 -44l-36 -20l-39 -17l-38 -12l-20 -2l-18 3l-29 7q-17 3 -30 12q-16 9 -25 19q-9 8 -18 24
z" />
    <glyph glyph-name="l" unicode="l" horiz-adv-x="718" 
d="M483 625q-3 -11 -14 -24l30 6l55 12l24 5l22 3l22 -1q9 0 24 -7l13 -7q8 -6 11 -11q7 -7 10.5 -14.5t7.5 -21.5l2 -9v-10q0 -17 -10 -34q-7 -16 -34 -43l-21 -19l-20 -19l-45 -43l-33 -31l-35 -36l-36 -32l-34 -32l-40 -35l-38 -34l-44 -41l-45 -42l-38 -32l-38 -32
q-21 -18 -50 -32l-20 -6l-20 -4q-24 0 -36 3t-16 4.5t-12 7t-13 9t-9 9.5l-12 16l-8 13l-5 13q-9 20 -9 37l2 17q2 11 7 18l20 23l24 19l55 42l52 38l31 23l28 22l40 30l35 27l37 32l18 16l20 18l-38 -5l-24 -4l-21 -2l-25 -1q-19 0 -33.5 3.5t-25.5 9t-15 8.5t-9 7l-9 15
l-6 14l-1 14q0 25 21 51l21 19l22 16l24 20l29 32l19 22l20 25l18 20l15 15q20 15 42 19l23 2q10 0 15.5 -1t20.5 -4q11 -4 17.5 -8t17.5 -13t20 -21l9 -20q3 -8 3 -20q0 -10 -5 -24z" />
    <glyph glyph-name="m" unicode="m" horiz-adv-x="653" 
d="M177 438q-7 2 -19 13l-17 21l-11 20l-4 22q0 17 2 25q0 13 6 31q5 11 7 14.5t8 11.5l25 24l27 17l35 11l29 5h32h10h35l39 -1l37 -3q18 0 36 -5l58 -15q19 -4 34 -15l24 -14l21 -22l12 -17l9 -19l8 -27l4 -37q0 -17 -2 -27.5t-8 -19.5l-10 -16l-8 -15q-7 -11 -14.5 -21
t-19.5 -23l-25 -27l-23 -22l-31 -31l-23 -19l-24 -21l-74 -60l-39 -30l-56 -41l-15 -11q-7 -4 -10.5 -5.5t-8.5 -6.5l-35 -21l-30 -10l-29 -3q-25 0 -48 12l-25 18l-21 26q-6 11 -10 30l-1 31q0 11 4 21l12 23l16 16q10 10 20 15l73 50l38 26l45 29l60 47l37 30l29 26
l-39 -7l-26 -4l-27 -4l-26 -2h-16l-16 1l-25 3z" />
    <glyph glyph-name="n" unicode="n" horiz-adv-x="814" 
d="M-57 169q-9 11 -20 35q-6 11 -6 26l1 20q2 12 5 18l9 16q10 15 25 26l34 18l39 18q27 13 61 34q12 7 33 21l40 26l23 16q23 15 41 32q-6 9 -8 22l-3 25l3 23l9 24l16 25q4 6 11 12t15 12q37 23 70 23q21 0 30 -2q12 0 25 -8q12 -4 21.5 -13.5t20.5 -30.5q15 7 22 13
l18 13q37 28 60 28q27 0 44 -17l15 -23q2 -6 4 -10.5t6 -11.5l13 9q7 3 15 11l25 20q5 4 14 8.5t14 6.5t12.5 3.5t15.5 2.5l12 -1q13 0 22 -5q9 -3 13 -5.5t13 -9.5q16 -9 26 -32l8 -21q3 -8 5 -26l-3 -20q-1 -7 -2.5 -12t-8.5 -18l-15 -19l-34 -32l-44 -35q-21 -14 -38 -23
q-12 -6 -37 -18l-34 -8l-36 -3q-33 0 -56 20l-10 9l-19 24l-26 -4h-25l-25 -27l-45 -41l-76 -64l-26 -21l-32 -24q-20 -13 -31 -20q-40 -25 -57 -35l-46 -26l-27 -12l-19 -5l-19 -2l-24 3q-12 3 -21 10q-8 3 -19 13z" />
    <glyph glyph-name="o" unicode="o" 
d="M145 833q-36 0 -69 36q-23 23 -32 55l-3 11l-1 15q0 32 34 57l23 14l30 15l27 12l28 16l17 11l10 6l7 5l-34 12l-33 13q-33 14 -48 43q-3 9 -4.5 16.5t-1.5 17.5q0 14 5 29q0 9 5 18.5t14 22.5q23 30 45 36q18 7 45 7l21 -1q11 -1 16.5 -2.5t14.5 -4.5t21.5 -8t21.5 -10
l51 -30l22 -16l19 -16q19 -15 35 -35l30 -38l14 11l29 26l39 30l32 27l34 26q44 28 73 39l30 6q29 0 56 -21q30 -21 42 -62l5 -16v-10q0 -15 -5 -31q-3 -18 -20 -28l-25 -18l-49 -37l-30 -24l-13 -11l11 -4l17 -4l44 -18q11 -5 22 -14q7 -3 18 -17.5t17 -42.5q0 -19 -12 -46
q-9 -28 -26 -39q-15 -18 -35 -25l-21 -3l-26 -1q-19 0 -32.5 4.5l-22.5 7.5t-22 9q-26 12 -44 21q-3 1 -33 19l-30 21l-23 22q-22 21 -40 46l-17 26l-21 -23l-16 -19q-5 -4 -8.5 -8.5t-4.5 -6.5l-33 -29q-2 -3 -12.5 -11.5t-18.5 -15.5q-43 -30 -75 -47q-7 -3 -20 -7t-19 -6
l-32 -4z" />
    <glyph glyph-name="p" unicode="p" horiz-adv-x="569" 
d="M483 606q12 -7 18 -13l18 -15q10 -9 13 -18q3 -5 5 -23l-2 -12q0 -4 -5 -12l-12 -14l-26 -25l-23 -18q3 -2 13 -14q6 -7 7 -9l8 -16l2 -12q0 -16 -7 -30q-4 -11 -18 -30l-11 -13l-16 -17l-44 -42l-45 -39l-46 -39l-32 -27l-36 -30l-30 -24l-54 -43l-24 -19l-30 -20
l-17 -9l-17 -6q-11 -3 -24 -3l-20 3q-11 3 -32 17l-17 13l-15 16q-8 10 -12 20q-8 11 -12 24l-3 23q0 29 16 57q2 4 14 14l22 15l59 39l72 48l58 42l45 36l20 16l20 17q-26 20 -32 37q-6 8 -6 24t11 30l20 22l18 17l18 16l-23 24l-10 16l-4 11l-1 12l2 18q4 12 12 24
q3 3 10.5 9.5t13.5 9.5l32 20l42 23q10 6 29.5 15.5t27.5 12.5l17 2q15 0 25 -5q14 -5 29 -21l13 -16l11 -18l4 -17l3 -14l-3 -17q-2 -6 -12 -18l-14 -15zM423 32q-15 0 -32 6q-12 6 -16.5 9t-13.5 13q-27 27 -27 61q0 37 27 64q25 28 62 28q12 0 24 -4q12 -1 23 -8t18 -16
l15 -18q12 -22 12 -46q0 -35 -26 -64q-26 -25 -66 -25z" />
    <glyph glyph-name="q" unicode="q" horiz-adv-x="571" 
d="M278 653q-26 0 -48 15q-20 17 -26 46l3 28q4 15 12 23q16 19 48 25q12 0 23 -3.5t24 -11.5q18 -17 26 -43q0 -18 -3.5 -30t-13.5 -22q-10 -19 -45 -27zM460 653q-27 0 -50 17q-11 7 -16.5 17t-9.5 28l3 28q3 11 13 21q14 20 45 27q15 0 25.5 -3t23.5 -13q23 -20 26 -45
l-3 -29q-3 -11 -13 -21q-12 -20 -44 -27zM12 38q-23 10 -33 21q-11 10 -23 29l-13 27l-5 21l-2 19l2 17q2 15 6 24l9 17l8 13q5 9 18 15q9 8 21 11l21 4l37 4l24 5l53 12q25 6 27 12l-7 10l-23 25l-12 16l-12 19l-8 18l-4 22q0 18 6.5 37.5t15.5 29.5l28 29l34 32l31 23
l97 62l24 13l22 8l25 4l15 -2l14 -3l17 -6q9 -3 23 -14q16 -20 27 -47l5 -26l2 -14l-2 -11q-3 -25 -20 -42l-23 -21l-34 -26l-35 -23l-30 -19q23 -24 31 -42l10 -22l9 -25l3 -18l1 -16q0 -17 -5.5 -36.5t-15.5 -33.5l-24 -27l-23 -22l-30 -25l-26 -16l-20 -11l-28 -13
l-36 -14l-30 -11l-26 -7l-33 -6l-32 -4h-14h-22q-11 3 -15 4z" />
    <glyph glyph-name="r" unicode="r" horiz-adv-x="729" 
d="M29 121l-27 12q-11 7 -16.5 11t-11.5 12q-10 11 -21 32l-9 26q-1 4 -2.5 11.5t-2.5 15.5v11t4 17q3 14 24 29l42 29l38 28l36 26l44 30l21 14l22 17l29 24l-9 20q-6 18 -9 40l2 34q3 16 26 44q13 19 52 34l27 5l29 3q20 0 41 -9l26 -13l34 22l31 21l34 23l36 24l39 19
l23 9l15 3h16q15 0 25 -5q11 -3 28 -20q3 -4 10 -13.5t11 -16.5q8 -14 11 -40q0 -21 -12 -40q-6 -11 -21 -23l-29 -21l-37 -24l-26 -17l-30 -20l21 -8l22 -16q8 -8 13 -16t8 -17l4 -24l-4 -23q-3 -17 -14 -30l-11 -15l-11 -11q-20 -15 -34 -20l-20 -6l-17 -2l-24 -2l-17 -1
l-31 1q-5 1 -10 1.5t-15 4.5l-44 14l-23 -18l-17 -15l-56 -48l-44 -37l-48 -37l-29 -22l-18 -12l-26 -14l-24 -9l-26 -5z" />
    <glyph glyph-name="s" unicode="s" horiz-adv-x="1260" 
d="M625 560h67l86 1l58 6l62 9l45 9q16 0 30 7l28 13l36 20l33 20q10 7 17.5 11.5t15.5 8.5q15 5 29 5h12t20 -3.5t28.5 -14.5t20.5 -21q3 -3 6 -9.5t7 -13.5l5 -21l2 -19q0 -25 -7 -40t-11 -21t-8 -10q-7 -8 -12 -11l-30 -25l-20 -13l-25 -14l-18 -10l-28 -12l-27 -9
l-43 -13l-79 -18q-38 -5 -74 -5l-136 -3l-94 -2l-78 4l-78 4l-77 6l-32 3l-35 3l-12 -11l-16 -14l-37 -29l-21 -17l-20 -17l-31 -20q-16 -9 -40 -14l-13 -1l-14 1l-12 3q-17 3 -44 23l-18 17q-6 6 -14 22q-11 23 -11 44l2 16q0 11 9 23t21 21l29 22l-16 14l-11 16
q-11 18 -14 30t-3 29q0 14 1 19.5t6 17t7 15t7 9.5l19 26l16 15q11 11 21 14l17 10l20 7q21 7 61 7l31 -1q13 -2 32 -9l19 -9l18 -10q38 -32 47 -73l60 -9l61 -3l75 -3z" />
    <glyph glyph-name="t" unicode="t" horiz-adv-x="750" 
d="M89 -70q-25 8 -49 35q-5 5 -9 12t-7 14t-7 25l-3 26q0 19 7 36q1 3 6 10.5t8 11.5q12 12 21 14l21 6l17 5l30 8q15 5 31 16l-15 13l-18 14l-14 11l-14 15q-29 31 -29 68v19q0 12 8 28l17 35l21 31l16 20l32 35q25 27 49 45l81 63q24 17 80 50l30 17q10 5 23.5 10.5t29 11
t27.5 7.5t29 2l19 1q19 0 46 -5q19 -5 60 -26q16 -9 31 -25l27 -35q15 -27 26 -66l4 -45v-15l-3 -21l-3 -20l-9 -30l-9 -24l-10 -16q-19 -36 -47 -59q-20 -18 -52 -29l-23 -6l-22 -1h-24l-24 1q-18 0 -26.5 1.5t-27.5 6.5l-38 10q-19 6 -25 8q-13 5 -28 14l-16 7
q-13 8 -25 16l-24 -21q17 -11 21 -16q5 -1 22 -17t22 -24l15 -29l7 -22l3 -21l-2 -21l-4 -27q-3 -14 -10 -25l-18 -28l-25 -26l-34 -27l-38 -24l-30 -15l-27 -10l-45 -7h-25h-16zM533 444q-5 9 -14 11q-4 -2 -7 -3q-10 -5 -19.5 -11.5t-19.5 -17.5l19 -5l16 -2q18 0 25 10
l2 11q-1 6 -2 7z" />
    <glyph glyph-name="u" unicode="u" 
d="M313 1308q11 0 25.5 -0.5t41.5 -7.5l40 -10l28 -10l24 -9q9 -5 21.5 -10.5t22.5 -13.5q15 -7 32 -24q31 -32 40 -75l1 -17q0 -17 -4.5 -34.5t-13.5 -34.5l-16 -24q-7 -10 -11 -15q-7 -10 -16 -19q-23 -28 -49 -48l-27 -21q-8 -8 -20 -16q-37 -27 -94 -56q-30 -16 -62 -27
q-12 -5 -27 -7l-27 -2q-26 0 -43 20l-11 12l-13 20l-13 23l-7 19l-2 15l2 13q4 15 5.5 19t11.5 16l26 19l44 25l39 21l29 18l10 5l18 13l12 10l7 5l-19 -2h-15l-34 4l-36 12l-20 14l-13 20q-1 2 -3 7.5t-4 16.5l-3 20q0 14 2 22l3 19q3 9 14 24l16 20l13 11l13 10l26 8l28 2
h8z" />
    <glyph glyph-name="v" unicode="v" horiz-adv-x="611" 
d="M306 425l10 -1q10 3 14 5l14 10l10 15q0 12 -10 21q-13 1 -24 -4q-5 -2 -9.5 -5t-10.5 -9.5t-6 -18.5q0 -5 12 -13zM144 317l-29 24l-16 19q-12 13 -22 43l-3 21l-1 20v15.5t4 22.5l14 32l20 27q14 20 42 42l30 21l33 17l34 12l40 9q38 9 77 9h23t22 -2q15 0 42 -10
q14 -5 23.5 -9.5t20 -11t17.5 -12.5q2 -2 20 -17q8 -6 11 -11l11 -13l10 -19q4 -7 9 -24l4 -36q0 -14 -2 -20l-6 -21l-13 -27l-16 -23l-23 -26q-6 -8 -11.5 -14t-12.5 -11l-24 -24l-16 -14l-66 -57l-45 -38l-47 -35l-54 -42l-54 -40l-34 -23l-14 -10l-16 -10
q-36 -17 -66 -17q-27 3 -56 20q-11 5 -18.5 13.5t-17.5 26.5q-11 27 -11 47l2 15l9 24l18 26l30 24l54 35l34 23q18 11 22 14t18 15z" />
    <glyph glyph-name="w" unicode="w" 
d="M233 1125q10 8 18.5 14.5t14.5 12.5l34 27l41 35l26 19q16 13 38 21l13 2l13 -2l18 -5q14 -4 29 -17l23 -30q24 -33 21 -63q-7 -39 -31 -66l-15 -17l-18 -17l-19 -15l-20 -15l-60 -45l-59 -44l-29 -21l-33 -21l-62 -36l-25 -9l-17 -1q-36 0 -59 26q-26 32 -38 72l-3 18
q0 10 4 21l9 23q5 11 21 24l44 29l20 13l26 15l18 12l18 13l21 14z" />
    <glyph glyph-name="x" unicode="x" horiz-adv-x="1260" 
d="M625 560h67l86 1l58 6l62 9l45 9q16 0 30 7l28 13l36 20l33 20q10 7 17.5 11.5t15.5 8.5q15 5 29 5h12t20 -3.5t28.5 -14.5t20.5 -21q3 -3 6 -9.5t7 -13.5l5 -21l2 -19q0 -25 -7 -40t-11 -21t-8 -10q-7 -8 -12 -11l-30 -25l-20 -13l-25 -14l-18 -10l-28 -12l-27 -9
l-43 -13l-79 -18q-38 -5 -74 -5l-136 -3l-94 -2l-78 4l-78 4l-77 6l-32 3l-35 3l-12 -11l-16 -14l-37 -29l-21 -17l-20 -17l-31 -20q-16 -9 -40 -14l-13 -1l-14 1l-12 3q-17 3 -44 23l-18 17q-6 6 -14 22q-11 23 -11 44l2 16q0 11 9 23t21 21l29 22l-16 14l-11 16
q-11 18 -14 30t-3 29q0 14 1 19.5t6 17t7 15t7 9.5l19 26l16 15q11 11 21 14l17 10l20 7q21 7 61 7l31 -1q13 -2 32 -9l19 -9l18 -10q38 -32 47 -73l60 -9l61 -3l75 -3zM526 599q-28 0 -48 15q-21 18 -27 46l3 28q3 13 11.5 22t21 16t28.5 10q12 0 23 -3.5t23 -11.5
q20 -19 26 -43l-3 -30q-3 -12 -13 -22q-12 -19 -45 -27zM635 721q-28 0 -50 16q-10 6 -18 19q-4 8 -8 26l3 28q3 11 13 21q14 20 45 27q15 0 25.5 -3t23.5 -13q23 -20 26 -45l-3 -29q-3 -11 -13 -21q-6 -11 -17.5 -17t-26.5 -9zM745 589q-26 0 -51 17q-13 9 -17 19
q-5 8 -8 26l3 28q3 11 13 21q13 18 45 27q24 0 49 -16q21 -18 26 -45q0 -17 -3 -28.5t-14 -22.5q-5 -10 -17 -16z" />
    <glyph glyph-name="y" unicode="y" horiz-adv-x="773" 
d="M551 432l-49 -9l-46 -10l-40 -46l-43 -44l-30 -31l-31 -27l-50 -43l-31 -27q-8 -9 -23 -21t-34 -26l-31 -19l-21 -7l-19 -5h-11l-17 1l-24 6l-23 12l-10 8l-19 19q-16 17 -24 40l-2 19l3 23q2 11 7 19l17 20l28 22l32 22l30 18l61 42l53 37l33 26l20 18l15 16
q-6 10 -9 25l-5 26l1 24l6 25l10 20q3 8 15 20.5t28 22.5q4 2 12 5.5t19 5.5l21 5l16 1q22 0 40 -6q10 -3 19.5 -9t20.5 -15l19 -17l19 -16l19 3l17 4l46 10l30 9l34 11l26 6l19 4q9 0 21.5 -4t20.5 -12q11 -8 23 -26q3 -5 5.5 -13t5 -17.5t2.5 -32.5q0 -38 -6 -70l-6 -37
q-2 -8 -6.5 -21t-8.5 -23l-25 -54l-22 -33l-31 -45q-4 -8 -14 -18q-2 -2 -10.5 -11t-20 -15.5t-22.5 -8.5l-24 -3q-14 0 -21 2l-20 7l-22 11q-10 5 -20 18q-21 24 -21 49l2 15l4 18l8 15l10 14l9 9l13 17l16 24z" />
    <glyph glyph-name="z" unicode="z" horiz-adv-x="697" 
d="M265 649q8 0 17 -4q13 -2 20 -5l28 -11l47 39l48 39l34 24l26 17l27 14l25 8l22 2q10 0 16 -2q8 0 23 -9l21 -15q6 -4 18 -21l8 -16l5 -17l3 -19q0 -16 -10 -33l-10 -16q-6 -9 -20 -20l-38 -29l-36 -25l-27 -18l11 -6l19 -10l15 -12l16 -19l12 -20l6 -22q3 -20 -7 -40
q-2 -7 -15 -23q-6 -7 -15.5 -14.5t-22.5 -15.5l-23 -8l-22 -4l-19 -1h-9q-25 0 -64 6l-42 6l-36 7l-19 -16l-21 -22l-13 -16l-10 -14l-10 -22l-2 -20q0 -17 10 -26l20 -12l19 -9l20 -5l25 -2h40h35h75l22 -1q12 0 20 -4q29 -17 39 -52q4 -16 4.5 -22t0.5 -13q0 -15 -2 -20
q0 -5 -7 -19l-9 -18q-3 -6 -18 -17l-25 -15l-27 -8l-33 -4l-33 -1l-36 1h-36h-10q-36 0 -55 3.5t-33.5 7t-31.5 10.5l-38 15l-34 18l-30 20q-4 2 -7 4.5l-15 12.5l-20 21l-22 28l-15 29l-12 32l-3 31v33q0 18 4 33.5t16 34.5q9 15 13 20.5t14 17.5l35 38l23 23l31 32l-14 30
q-5 16 -7 33q0 18 2 25l9 24q12 25 32 44q5 5 10.5 8.5t8.5 5.5l24 12q14 6 29 6z" />
    <glyph glyph-name="braceleft" unicode="{" horiz-adv-x="459" 
d="M179 640q23 -3 38.5 -5.5t28.5 -7.5q29 -9 47 -28q33 -36 33 -105v-278q0 -69 80 -69l26 -5q19 -3 31 -12q11 -4 15 -18l7 -30q0 -28 -19 -44q-15 -15 -43 -18h-102q-50 0 -81.5 9t-57.5 32q-45 43 -45 136v239q0 39 -3 64.5t-9 49t-54 23.5q-17 0 -24.5 1.5t-11.5 3.5
t-14 8q-17 19 -17 51q0 30 16 49q6 10 19 15l32 4q39 0 50 24q16 26 16 62v23v271q0 175 182 175h104q24 0 43 -19q13 -12 19 -47q0 -34 -16.5 -43.5t-61.5 -15.5q-40 0 -42 -2q-39 -14 -39 -71v-282q0 -67 -35 -99q-13 -14 -43 -27q-4 -1 -27.5 -6t-41.5 -8z" />
    <glyph glyph-name="bar" unicode="|" horiz-adv-x="307" 
d="M71 68v1215q0 21 4 34.5t17 29.5q18 26 62 26q40 0 62 -25t22 -65v-1215q0 -40 -25 -64q-16 -25 -59 -25q-21 0 -35 5q-15 7 -27 20q-9 12 -11 14.5t-6 14.5z" />
    <glyph glyph-name="braceright" unicode="}" horiz-adv-x="459" 
d="M243 651q-25 9 -49 30q-36 35 -36 99v282q0 73 -79 73q-69 0 -79 59q9 66 64 66h105q183 0 183 -175v-271q0 -12 -4 -19q0 -37 14.5 -63.5t55.5 -26.5q29 0 48 -19q8 -8 12 -20l7 -29q0 -18 -12 -36l-8 -14l-14 -10q-12 -4 -33 -4q-45 0 -57 -28q-3 -15 -6 -44.5
t-3 -64.5v-239q0 -177 -184 -177h-104q-48 0 -64 62l7 29q5 12 13 17q14 9 59 19h24q21 0 41 20q14 20 14 49v278q0 68 34 105q14 14 44 25q26 7 71 13q-22 3 -36 5.5t-28 8.5z" />
    <glyph glyph-name="asciitilde" unicode="~" horiz-adv-x="829" 
d="M75 674q35 56 83 84q29 12 51 17t49 5l37 -3q8 -1 20.5 -4t27 -7t19 -5.5t20.5 -8.5l41 -16l31 -15l42 -18q42 -17 68 -17q24 0 36 8l40 30l22 22l17 12q14 11 34 11q15 0 24 -5q8 -2 19 -16q17 -28 17 -54q0 -25 -5.5 -42t-9 -26.5t-10.5 -22.5q-10 -17 -15 -23.5
t-16.5 -17t-27.5 -21.5q-10 -6 -19 -12q-20 -13 -52 -19l-71 -4q-42 4 -66 13q-3 1 -12.5 4.5t-27.5 11.5l-37 17l-52 23l-47 17l-38 7l-19 -3q-10 -2 -18 -7l-42 -32l-41 -31l-17 -8l-19 -5q-48 9 -54 79q0 26 4 42q2 14 14 40z" />
    <glyph glyph-name="c128" horiz-adv-x="276" 
d="M-41 831q-44 15 -44 68q0 19 5.5 33.5t18.5 26.5q21 25 56 25q20 0 56 -12l186 -79q43 -18 43 -68q0 -36 -24 -62.5t-57 -26.5l-22 5l-31 10z" />
    <glyph glyph-name="c129" horiz-adv-x="794" 
d="M74 581q42 74 116 126q33 22 73 38q40 14 80 14q60 0 110 -20.5t87 -64.5q26 69 100 69q44 0 77 -32q31 -28 31 -83v-525q0 -36 -24.5 -70.5t-72.5 -41.5q-24 0 -40 3.5t-32 16.5l-22 23l-17 25q-63 -80 -183 -80q-98 0 -172 52t-121 146q-18 42 -31 92t-13 100
q0 30 3 55t11 54q13 52 40 103zM384 551q-65 0 -108 -55q-16 -23 -29 -58q-11 -36 -11 -69q0 -39 8 -70t31 -60q42 -53 109 -53q68 0 108 52q18 22 29 58q5 13 8 34t3 39q0 75 -39.5 128.5t-108.5 53.5z" />
    <glyph glyph-name="c141" horiz-adv-x="1178" 
d="M47 103v529q0 43 31 78t78 35q83 0 107 -71q26 41 78 63q24 9 55.5 15.5t54.5 6.5q134 0 200 -90l58 42q28 19 74 34l41 10l53 4q50 0 95 -17t85 -49q70 -61 70 -188v-402q0 -47 -29 -79q-12 -12 -34 -24q-18 -9 -43 -9q-42 0 -78 33q-16 18 -23.5 37t-7.5 42v343
q0 57 -29 90q-23 38 -78 38q-49 0 -80 -37q-28 -37 -28 -91v-343q0 -25 -6.5 -43.5t-23.5 -35.5q-12 -12 -34 -24q-18 -9 -43 -9q-45 0 -77 33t-32 79v343q0 29 -6.5 50.5t-23.5 39.5q-23 38 -77 38q-50 0 -80.5 -38t-30.5 -90v-343q0 -15 -1 -23.5t-6 -19.5
q-6 -20 -21 -34.5t-34.5 -24.5t-44.5 -10q-43 0 -76 33q-33 36 -33 79z" />
    <glyph glyph-name="c142" horiz-adv-x="771" 
d="M263 674q30 40 82 63q25 10 57 16t68 6q49 0 93 -17t84 -49q72 -61 72 -188v-402q0 -45 -29 -79q-8 -8 -15.5 -13t-23 -12.5t-39.5 -7.5q-42 0 -78 33q-14 18 -21.5 37.5t-7.5 41.5v343q0 52 -33.5 90t-86.5 38q-56 0 -88 -38q-34 -36 -34 -90v-343q0 -15 -1 -23.5
t-6 -19.5q-6 -20 -21 -34.5t-34.5 -24.5t-44.5 -10q-43 0 -76 33q-33 36 -33 79v529q0 43 31 78t78 35q83 0 107 -71z" />
    <glyph glyph-name="c143" horiz-adv-x="771" 
d="M492 238q18 22 29 58q5 13 8 34t3 39q0 26 -3 46t-11.5 41t-21 37.5t-31.5 30t-39 20.5t-41 7q-68 0 -110 -55q-37 -49 -37 -127q0 -75 38.5 -130t103.5 -55l5 2q67 0 107 52zM385 -21q-160 0 -264 108q-100 115 -100 282q0 166 98.5 278t265.5 112q109 0 194 -55
q78 -50 128 -142q41 -90 41 -193q0 -106 -48 -198q-42 -88 -122 -140t-193 -52z" />
    <glyph glyph-name="c144" horiz-adv-x="794" 
d="M721 154q-42 -76 -114.5 -125.5t-155.5 -49.5q-29 0 -52.5 3t-46.5 10t-46.5 19t-43.5 26v-238q0 -48 -33 -75q-15 -15 -34 -22t-41 -7q-43 0 -75.5 29.5t-32.5 83.5v824q0 39 25 73q25 30 73 38q25 0 40 -5q19 -3 32 -15q3 -2 9.5 -7.5t14.5 -14.5l15 -27q64 82 180 82
q47 0 89.5 -13t85.5 -43q76 -49 120 -142q21 -47 32 -93t11 -96q0 -118 -52 -215zM411 186q68 0 108 53t40 130q0 76 -41 127q-37 55 -107 55q-67 0 -108 -52.5t-41 -129.5t41 -131q4 -5 16.5 -17.5t29.5 -21.5q29 -13 62 -13z" />
    <glyph glyph-name="c157" horiz-adv-x="459" 
d="M307 389q-37 0 -63.5 10.5t-49.5 30.5q-36 33 -36 99v282q0 72 -79 72q-68 0 -79 60q9 65 64 65h105q183 0 183 -175v-271q0 -13 -4 -18q0 -36 15 -65q15 -26 55 -26q30 0 48 -18q8 -8 11.5 -18.5t5.5 -19t2 -12.5q0 -18 -12 -35l-8 -14l-14 -10q-15 -5 -33 -5
q-45 0 -57 -28q-9 -36 -9 -109v-238q0 -178 -184 -178h-104q-47 0 -64 63l7 29q4 11 13 17q3 2 16.5 6.5t42.5 12.5h24q22 0 41 19q14 20 14 50v278q0 69 34 104q16 16 43.5 24.5t71.5 13.5v4z" />
    <glyph glyph-name="c158" horiz-adv-x="829" 
d="M75 423q35 57 83 83q4 2 21 8t27 9q23 6 52 6l37 -3l46 -11l41 -14l41 -16l31 -16l42 -18q39 -16 68 -16q23 0 36 7l40 31l22 21q9 9 17 12q14 12 34 12q15 0 24 -5q4 -1 9 -6t10 -11q17 -28 17 -54q0 -25 -5.5 -41.5t-9 -26t-10.5 -22.5q-10 -17 -15 -23.5t-16.5 -17
t-16.5 -14.5t-30 -20q-21 -12 -52 -18l-71 -4q-40 4 -66 12l-40 17l-37 17l-52 23l-47 17l-38 6l-19 -3q-9 0 -18 -6l-42 -33l-41 -30l-17 -9l-19 -4q-54 8 -54 79q0 26 4 42q2 14 14 40z" />
    <glyph glyph-name="nonbreakingspace" unicode="&#xa0;" horiz-adv-x="465" 
 />
    <glyph glyph-name="oe" unicode="&#x153;" horiz-adv-x="307" 
d="M71 68v908q0 21 4 34.5t17 29.5q18 26 62 26q40 0 62 -25t22 -65v-908q0 -40 -25 -64q-16 -25 -59 -25q-21 0 -35 5q-15 7 -27 20q-9 12 -11 14.5t-6 14.5z" />
    <glyph glyph-name="guilsinglright" unicode="&#x203a;" horiz-adv-x="459" 
d="M179 389v-4q21 0 37.5 -2t29.5 -8q26 -7 47 -28q33 -35 33 -104v-278q0 -69 80 -69l29 -6q17 -3 28 -10.5t15 -17.5t7 -31q0 -28 -19 -44q-14 -15 -43 -19h-102q-47 0 -81 10t-58 32q-45 43 -45 136v238q0 40 -3 66l-9 48q-6 23 -54 23l-26 3q-6 1 -10 3t-14 8
q-17 17 -17 50q0 31 16 50q8 11 19 15l32 3q38 0 50 25q16 24 16 62v22v271q0 175 182 175h104q25 0 43 -18q13 -13 19 -47q0 -34 -18 -46q-7 -3 -22.5 -7t-37.5 -7l-42 -1q-39 -15 -39 -71v-282q0 -68 -35 -99q-13 -14 -43 -27q-14 -4 -35.5 -8t-33.5 -6z" />
  </font>
</defs>
</svg>
